<?xml version="1.0" standalone="no"?>
<!DOCTYPE svg PUBLIC "-//W3C//DTD SVG 20010904//EN"
 "http://www.w3.org/TR/2001/REC-SVG-20010904/DTD/svg10.dtd">
<svg version="1.0" xmlns="http://www.w3.org/2000/svg"
 width="1997.000000pt" height="2393.000000pt" viewBox="0 0 1997.000000 2393.000000"
 preserveAspectRatio="xMidYMid meet">
<metadata>
Created by potrace 1.16, written by Peter Selinger 2001-2019
</metadata>
<g transform="translate(0.000000,2393.000000) scale(0.100000,-0.100000)"
fill="#000000" stroke="none">
<path d="M9565 23917 c-157 -53 -261 -186 -301 -386 -20 -101 -15 -333 9 -419
39 -138 127 -262 224 -314 70 -38 164 -54 243 -40 113 20 195 76 252 172 35
59 77 184 66 196 -7 6 -159 64 -170 64 -3 0 -15 -30 -27 -67 -53 -175 -202
-228 -324 -114 -68 62 -92 156 -92 351 0 107 5 159 17 200 19 62 73 132 121
157 43 22 123 21 171 -2 42 -20 94 -85 103 -128 3 -15 9 -29 13 -32 3 -2 46 8
94 22 l87 26 -7 31 c-21 105 -117 226 -212 269 -59 26 -206 34 -267 14z"/>
<path d="M10309 23894 c0 -22 -17 -275 -38 -564 -21 -289 -36 -527 -35 -529 3
-4 177 -19 182 -16 1 1 10 113 19 249 l17 246 35 -1 c20 0 103 -6 186 -12
l149 -12 -3 -55 c-1 -30 -9 -140 -16 -245 -7 -104 -12 -191 -10 -194 2 -2 45
-6 95 -9 72 -4 90 -2 90 9 0 8 18 262 39 564 22 303 37 552 35 554 -3 3 -45 7
-94 9 -64 3 -90 1 -90 -7 0 -36 -32 -426 -35 -429 -2 -2 -85 2 -184 9 -173 11
-181 13 -181 33 0 12 7 111 15 220 9 109 13 201 11 204 -3 2 -46 7 -96 10
l-90 5 -1 -39z"/>
<path d="M8524 23820 c-187 -61 -262 -265 -169 -457 49 -100 119 -142 309
-184 72 -16 148 -37 169 -46 82 -36 94 -144 24 -221 -23 -25 -103 -52 -151
-52 -78 1 -148 62 -181 157 -10 28 -19 37 -32 35 -23 -3 -157 -34 -160 -37 -6
-4 31 -114 53 -158 61 -119 150 -178 282 -185 194 -11 331 57 394 193 19 42
23 67 23 150 0 121 -19 184 -76 249 -66 75 -116 98 -299 136 -134 28 -184 50
-204 89 -20 38 -20 54 0 92 21 41 84 69 157 69 77 0 111 -21 144 -87 28 -58
25 -58 128 -39 l70 12 -2 37 c-5 87 -72 187 -155 232 -48 27 -64 30 -158 32
-83 2 -118 -1 -166 -17z"/>
<path d="M11637 23799 c-201 -28 -350 -223 -402 -523 -56 -327 61 -566 310
-631 259 -67 470 79 559 389 82 281 35 545 -118 671 -54 44 -139 83 -196 90
-25 3 -56 7 -70 9 -14 1 -51 -1 -83 -5z m183 -219 c51 -26 97 -84 115 -144 32
-106 7 -319 -51 -442 -31 -65 -83 -122 -136 -147 -44 -21 -136 -22 -182 -3
-49 21 -103 82 -127 145 -18 49 -20 71 -16 171 7 177 50 304 127 379 73 71
180 87 270 41z"/>
<path d="M12648 23535 c-161 -44 -290 -204 -364 -450 -24 -79 -28 -107 -28
-230 0 -119 3 -149 21 -197 44 -117 129 -205 240 -249 47 -19 78 -23 168 -23
100 -1 115 1 165 26 186 93 320 340 337 620 10 168 -27 287 -118 383 -104 110
-278 160 -421 120z m231 -216 c109 -61 146 -212 97 -399 -65 -249 -186 -368
-343 -339 -91 17 -151 81 -179 191 -19 74 -13 156 22 276 45 153 97 232 187
277 44 23 61 26 113 22 39 -3 77 -13 103 -28z"/>
<path d="M6998 23427 c-49 -13 -78 -26 -78 -35 0 -21 281 -1066 288 -1073 6
-5 619 155 628 164 8 7 -40 169 -52 174 -7 2 -105 -21 -219 -51 -114 -31 -212
-56 -219 -56 -6 0 -62 190 -131 450 -66 248 -124 450 -130 449 -5 0 -45 -10
-87 -22z"/>
<path d="M13357 22768 c-108 -282 -197 -519 -199 -526 -2 -9 93 -51 292 -128
162 -62 300 -114 306 -114 10 0 80 168 73 174 -2 1 -96 37 -209 80 -113 43
-209 82 -214 86 -4 5 8 50 27 102 30 79 272 710 292 759 5 14 -10 23 -75 48
-45 17 -85 31 -89 31 -4 0 -96 -231 -204 -512z"/>
<path d="M6265 23157 c-44 -17 -82 -32 -84 -34 -6 -5 61 -1177 68 -1185 7 -8
158 47 174 62 5 4 4 65 -2 135 -6 71 -10 130 -8 132 8 7 348 136 351 132 1 -2
39 -50 85 -106 l82 -103 62 24 c34 13 76 30 94 37 l32 14 -375 460 c-206 253
-380 461 -387 462 -7 1 -48 -13 -92 -30z m235 -423 c67 -86 123 -161 126 -168
4 -13 -217 -99 -227 -88 -4 4 -12 88 -18 187 -7 99 -15 193 -18 209 -3 18 -1
26 5 22 6 -3 65 -76 132 -162z"/>
<path d="M5582 22852 c-61 -31 -72 -40 -68 -57 6 -23 474 -986 486 -998 4 -5
44 10 88 32 l81 41 -88 182 c-236 488 -410 838 -418 837 -4 0 -41 -17 -81 -37z"/>
<path d="M5099 22561 c-14 -5 -43 -16 -65 -26 -49 -23 -422 -254 -430 -266 -4
-7 503 -834 578 -941 l19 -27 74 47 c41 26 75 50 75 55 0 4 -52 90 -115 192
-63 101 -118 191 -121 199 -8 20 84 66 133 66 45 0 105 -27 313 -144 175 -98
152 -97 273 -19 l77 49 -143 84 c-193 114 -264 149 -335 162 l-61 11 31 36
c108 122 85 295 -57 438 -79 79 -164 108 -246 84z m123 -238 c16 -15 36 -40
44 -55 17 -32 18 -101 3 -130 -9 -17 -243 -178 -258 -178 -6 0 -137 208 -146
232 -6 15 45 51 195 137 68 39 117 38 162 -6z"/>
<path d="M14946 22559 c-114 -27 -233 -115 -330 -243 -181 -241 -230 -479
-134 -659 56 -105 178 -192 306 -218 216 -45 461 132 602 434 55 117 75 227
61 324 -6 42 -20 96 -31 121 -76 171 -296 283 -474 241z m179 -213 c92 -43
135 -112 135 -215 0 -154 -157 -404 -296 -472 -91 -44 -208 -26 -270 43 -103
112 -74 295 78 500 58 79 110 123 176 149 64 25 117 23 177 -5z"/>
<path d="M9760 22124 c-388 -22 -629 -45 -920 -90 -1366 -209 -2649 -764
-3750 -1620 -486 -378 -966 -853 -1351 -1334 -1379 -1727 -1989 -3911 -1708
-6115 187 -1471 793 -2887 1729 -4045 352 -435 768 -853 1200 -1205 1194 -973
2659 -1592 4180 -1764 374 -42 455 -46 955 -45 429 0 518 3 715 22 1062 105
1983 367 2894 824 798 400 1477 889 2111 1523 1329 1326 2158 3071 2339 4925
49 502 51 1087 5 1575 -154 1644 -793 3171 -1860 4450 -293 352 -669 726
-1036 1032 -385 322 -867 648 -1310 888 -1024 556 -2129 879 -3303 965 -147
11 -771 21 -890 14z m1010 -168 c1260 -118 2393 -490 3450 -1131 748 -453
1463 -1076 2024 -1760 964 -1176 1567 -2589 1750 -4105 80 -657 71 -1419 -24
-2085 -202 -1404 -780 -2735 -1674 -3850 -346 -431 -800 -885 -1231 -1231
-448 -359 -947 -677 -1455 -928 -944 -466 -1903 -725 -2990 -808 -214 -16
-878 -16 -1085 0 -993 79 -1855 294 -2707 675 -2602 1166 -4391 3636 -4677
6458 -34 337 -44 580 -38 954 6 347 13 470 42 740 156 1425 688 2767 1555
3920 660 877 1520 1629 2477 2166 996 559 2166 912 3273 989 85 6 171 12 190
14 97 11 966 -3 1120 -18z"/>
<path d="M9170 20714 c-282 -75 -502 -135 -524 -144 -11 -4 -56 -18 -98 -31
-43 -12 -78 -26 -78 -30 0 -5 -17 -11 -37 -14 -38 -6 -253 -71 -348 -104 -125
-45 -200 -75 -203 -83 -2 -4 -10 -8 -19 -8 -16 0 -51 -14 -158 -64 -38 -19
-81 -36 -95 -40 -14 -3 -40 -15 -59 -26 l-33 -21 4 -97 c6 -119 -25 -596 -39
-614 -6 -7 -13 -44 -16 -82 -4 -37 -11 -73 -16 -80 -5 -6 -12 -33 -16 -61 -3
-27 -11 -59 -16 -70 -5 -11 -16 -51 -24 -90 -54 -250 -67 -329 -70 -440 -4
-126 -22 -255 -34 -255 -12 0 -61 -48 -61 -60 0 -5 -7 -10 -15 -10 -20 0 -55
-36 -55 -56 0 -9 -9 -18 -20 -21 -11 -3 -20 -9 -20 -14 0 -5 -5 -9 -11 -9 -5
0 -36 -28 -67 -61 -31 -34 -72 -75 -89 -92 -18 -17 -33 -36 -33 -44 0 -7 -6
-13 -13 -13 -8 0 -19 -11 -25 -25 -6 -14 -16 -25 -22 -25 -5 0 -10 -9 -10 -20
0 -11 -6 -20 -12 -20 -30 -1 -141 -142 -182 -230 -30 -64 -33 -106 -10 -139
16 -23 103 -67 179 -91 62 -20 109 -60 71 -60 -20 0 -116 -108 -116 -131 0
-11 -10 -23 -22 -28 -30 -12 -55 -40 -122 -141 -67 -99 -163 -287 -152 -297 4
-4 9 3 13 15 8 31 37 24 41 -9 2 -20 -2 -28 -17 -32 -12 -3 -21 -12 -21 -21 0
-9 -4 -16 -10 -16 -5 0 -10 -7 -10 -15 0 -8 -5 -15 -11 -15 -6 0 -8 9 -4 20 3
11 2 20 -3 20 -13 0 -54 -119 -46 -132 10 -16 5 -123 -6 -126 -5 -2 -10 -13
-10 -24 0 -11 -8 -22 -20 -25 -21 -6 -23 -10 -41 -88 -13 -59 -12 -249 1 -253
6 -2 13 -21 16 -42 4 -21 12 -41 19 -44 28 -10 59 -106 35 -106 -5 0 -10 -11
-10 -25 0 -14 -9 -34 -21 -46 -17 -17 -20 -33 -21 -112 -1 -89 0 -93 29 -124
29 -30 30 -37 36 -147 5 -98 9 -118 27 -136 11 -11 20 -29 20 -39 0 -10 7 -21
15 -25 12 -4 15 -27 15 -121 0 -70 4 -115 10 -115 6 0 10 -15 10 -34 0 -19 5
-38 10 -41 6 -3 10 -15 10 -26 0 -10 4 -19 9 -19 5 0 12 -24 15 -54 4 -30 14
-60 22 -67 18 -15 19 -103 1 -121 -8 -7 -19 -47 -25 -87 -10 -72 -10 -75 20
-142 17 -38 35 -69 39 -69 5 0 9 -9 9 -20 0 -25 103 -231 124 -249 9 -8 16
-20 16 -28 0 -28 71 -132 103 -151 18 -10 55 -25 82 -32 28 -7 55 -17 62 -22
6 -5 20 -8 30 -6 27 4 69 -28 56 -44 -21 -27 -22 -59 -2 -79 10 -10 19 -26 19
-35 0 -9 9 -18 20 -21 16 -4 20 -14 20 -50 0 -25 4 -42 9 -38 6 3 13 -10 17
-30 4 -23 12 -35 23 -35 9 0 41 -23 71 -50 30 -28 59 -50 64 -50 5 0 14 -7 21
-16 7 -10 29 -17 61 -18 108 -5 114 -6 114 -21 0 -8 4 -15 9 -15 5 0 13 -9 16
-20 3 -11 11 -20 17 -20 5 0 21 -10 34 -22 19 -19 24 -33 24 -75 0 -29 5 -53
10 -53 6 0 10 -6 10 -13 0 -8 11 -24 25 -37 14 -13 25 -29 25 -37 0 -13 15
-18 109 -37 46 -9 57 -15 59 -33 2 -13 8 -23 13 -23 5 0 15 -11 21 -25 6 -14
17 -25 25 -25 7 0 13 -4 13 -8 0 -12 112 -42 157 -42 28 0 45 -8 65 -29 29
-29 127 -56 245 -68 46 -5 53 -4 53 12 0 10 3 16 6 12 9 -9 -6 -47 -19 -48 -7
0 -38 -38 -71 -84 -32 -47 -67 -95 -77 -107 -30 -37 -121 -136 -153 -166 -15
-15 -41 -39 -56 -54 -15 -16 -33 -28 -40 -28 -18 0 -209 -197 -221 -227 -6
-15 -7 -55 -3 -95 5 -48 3 -68 -5 -68 -14 0 -51 -36 -51 -50 0 -5 -8 -10 -18
-10 -10 0 -33 -14 -51 -31 -19 -17 -45 -35 -59 -40 -14 -5 -64 -34 -113 -64
-113 -70 -235 -130 -323 -159 -79 -26 -189 -76 -194 -88 -2 -4 -12 -8 -22 -8
-10 0 -20 -3 -22 -7 -1 -5 -24 -19 -50 -32 -27 -13 -48 -28 -48 -32 0 -5 -5
-9 -10 -9 -34 0 -540 -373 -540 -398 0 -14 -38 -51 -53 -52 -4 0 -18 -9 -30
-21 -12 -11 -44 -36 -72 -54 -27 -19 -84 -65 -125 -104 -70 -65 -74 -71 -56
-84 22 -16 136 -15 276 3 52 6 103 12 113 13 9 1 17 4 17 8 0 12 43 18 155 20
61 1 115 6 122 11 12 10 188 5 233 -6 207 -50 228 -60 337 -158 24 -21 49 -38
57 -38 8 0 18 -9 21 -20 3 -11 12 -20 19 -20 7 0 25 -11 39 -24 14 -13 28 -22
31 -19 2 3 9 -5 16 -16 6 -12 17 -21 25 -21 8 0 15 -4 15 -10 0 -5 5 -10 11
-10 11 0 89 -72 89 -83 0 -9 90 -97 118 -115 12 -8 22 -19 23 -26 0 -6 23 -31
51 -56 86 -76 188 -179 188 -190 0 -5 7 -10 15 -10 9 0 19 -8 22 -17 4 -10 22
-31 40 -47 18 -16 33 -35 33 -41 0 -6 11 -18 25 -25 14 -7 25 -17 25 -22 0 -5
16 -24 35 -42 19 -19 38 -48 41 -64 4 -18 14 -32 25 -35 10 -3 19 -13 19 -22
0 -9 7 -23 15 -31 8 -9 15 -24 15 -35 0 -10 6 -19 14 -19 8 0 17 -9 21 -19 3
-11 12 -22 20 -25 8 -3 15 -10 15 -16 0 -11 25 -44 53 -69 9 -8 17 -21 17 -29
0 -7 5 -10 10 -7 6 3 10 -4 10 -15 0 -13 8 -24 20 -27 10 -3 22 -14 26 -25 3
-10 21 -34 40 -53 19 -19 34 -41 34 -50 0 -8 7 -15 15 -15 8 0 15 -8 15 -18 0
-10 9 -25 20 -35 11 -9 20 -24 20 -32 0 -8 4 -15 9 -15 5 0 12 -13 16 -30 4
-17 11 -30 16 -30 6 0 15 -13 20 -29 6 -16 17 -32 25 -35 8 -3 14 -17 14 -31
0 -14 5 -25 10 -25 6 0 10 -6 10 -13 0 -8 9 -22 20 -32 11 -10 22 -27 26 -38
4 -11 15 -30 25 -41 11 -11 19 -26 19 -33 0 -8 4 -12 9 -8 6 3 13 -10 17 -30
3 -19 10 -35 14 -35 4 0 13 -14 19 -30 5 -16 17 -30 25 -30 8 0 21 -3 30 -6
12 -4 16 0 16 15 0 12 -4 21 -10 21 -5 0 -13 12 -16 28 -4 15 -15 35 -25 45
-11 10 -19 27 -19 38 0 11 -4 17 -10 14 -5 -3 -10 2 -10 13 0 10 -11 32 -25
48 -14 16 -25 35 -25 42 0 7 -4 11 -9 8 -5 -4 -13 8 -16 26 -4 18 -20 44 -35
58 -15 14 -31 40 -35 58 -3 18 -11 32 -16 32 -5 0 -11 11 -15 25 -3 14 -15 30
-25 36 -11 5 -19 20 -19 35 0 13 -7 27 -15 30 -8 4 -15 15 -15 25 0 10 -7 19
-15 19 -8 0 -15 4 -15 8 0 5 -9 19 -20 32 -11 13 -20 29 -20 36 0 7 -9 18 -20
24 -11 6 -20 17 -20 25 0 8 -4 15 -9 15 -5 0 -13 9 -16 20 -3 11 -13 20 -22
20 -8 0 -17 9 -20 19 -3 11 -11 22 -19 25 -8 3 -14 13 -14 22 0 8 -16 31 -35
50 -19 18 -35 41 -35 49 0 9 -7 18 -15 21 -8 4 -15 11 -15 18 0 6 -8 19 -17
28 -43 41 -53 56 -53 76 0 12 -6 22 -14 22 -7 0 -17 15 -22 33 -7 24 -17 34
-42 42 -17 5 -32 15 -32 23 0 7 -5 10 -10 7 -6 -3 -10 0 -10 8 0 16 -22 43
-97 122 -29 30 -53 58 -53 61 0 3 -15 21 -32 40 -18 18 -38 39 -44 46 -26 31
-73 66 -78 60 -4 -3 -9 4 -13 16 -3 12 -10 22 -17 22 -13 0 -56 44 -56 56 0 5
-16 20 -35 33 -19 13 -35 27 -35 32 0 12 -147 159 -159 159 -6 0 -11 5 -11 10
0 6 -7 10 -15 10 -9 0 -18 6 -21 14 -3 7 -26 24 -51 37 -25 13 -48 32 -51 41
-2 10 -10 18 -16 18 -7 0 -32 18 -57 40 -24 22 -50 40 -56 40 -7 0 -13 4 -13
9 0 5 -15 16 -34 25 -19 9 -36 21 -38 27 -2 5 -30 12 -63 15 -33 3 -82 13
-110 22 -59 18 -232 20 -370 4 -92 -11 -148 -17 -270 -28 -38 -4 -74 -10 -80
-14 -5 -5 -31 -11 -57 -15 -44 -7 -48 -6 -48 14 0 12 6 21 15 21 8 0 15 7 15
15 0 9 16 25 35 36 19 12 35 25 35 30 0 5 9 9 20 9 11 0 20 5 20 10 0 6 7 10
15 10 8 0 15 7 15 15 0 8 7 15 15 15 8 0 32 17 53 38 58 57 80 72 113 79 16 3
29 10 29 15 0 5 8 12 18 15 26 10 114 68 139 92 12 12 25 21 29 21 11 0 52 48
59 69 3 10 12 22 20 25 8 3 15 12 15 21 0 9 15 22 33 30 17 7 41 22 52 32 11
11 40 27 64 37 24 9 55 26 69 37 14 10 31 19 38 19 8 0 14 5 14 10 0 6 7 10
16 10 8 0 35 11 59 24 24 14 71 30 104 37 34 6 61 16 61 20 0 5 9 9 19 9 11 0
23 5 26 10 9 14 101 60 120 60 8 0 15 7 15 15 0 24 58 45 92 33 24 -9 34 -6
66 18 20 15 41 34 45 41 4 7 12 13 18 13 5 0 20 11 33 25 13 14 27 25 32 25 5
0 20 14 34 30 14 17 32 30 42 30 9 0 18 5 20 12 2 6 10 -27 17 -73 91 -607
274 -1193 549 -1757 67 -138 90 -168 139 -181 56 -16 110 7 142 60 20 33 431
476 685 739 286 296 592 580 626 580 23 0 -83 -332 -201 -627 -38 -98 -124
-304 -190 -458 -70 -167 -119 -294 -119 -313 0 -62 23 -86 177 -184 234 -150
409 -249 883 -503 506 -270 785 -428 916 -516 l40 -27 75 14 c40 8 116 24 167
36 l93 20 -63 46 c-160 116 -478 306 -838 499 -550 295 -654 352 -775 420
-172 98 -395 236 -395 244 0 4 30 76 66 161 292 681 424 1070 424 1254 0 104
-32 175 -95 208 -65 34 -128 28 -226 -22 -185 -92 -465 -357 -1124 -1060
l-209 -224 -33 66 c-52 104 -157 360 -212 520 -122 353 -203 689 -270 1125
-28 177 -47 241 -72 241 -20 0 -7 36 24 64 18 17 36 38 39 47 4 9 20 23 37 30
16 7 40 30 53 51 13 21 29 38 36 38 6 0 12 7 12 15 0 9 7 18 15 21 8 3 17 15
21 26 3 11 12 17 20 14 8 -3 14 1 14 9 0 8 7 15 15 15 8 0 15 6 15 13 0 15 44
57 59 57 6 0 11 6 11 13 0 7 8 19 18 28 9 8 33 34 52 58 19 23 45 54 58 69 38
45 39 48 47 80 3 18 13 32 21 32 8 0 14 9 14 19 0 11 6 26 13 33 7 7 18 25 24
41 7 15 17 27 21 27 5 0 12 17 15 38 10 59 13 71 20 78 4 4 7 21 7 38 0 17 7
44 15 60 8 15 15 41 15 57 0 15 5 31 10 34 6 3 10 15 10 26 0 10 4 19 9 19 5
0 12 27 16 60 4 33 11 63 16 66 5 3 9 19 9 36 0 17 7 39 15 48 9 10 19 35 22
56 3 22 12 43 20 47 7 4 13 17 13 28 0 12 8 23 18 26 10 2 26 17 36 32 13 19
36 32 75 44 85 25 101 23 101 -13 0 -16 -4 -30 -10 -30 -5 0 -10 -6 -10 -14 0
-8 -6 -21 -13 -28 -8 -7 -16 -33 -20 -58 -3 -24 -13 -49 -21 -56 -21 -15 -22
-109 -2 -117 8 -3 17 -20 21 -37 4 -17 13 -43 21 -58 8 -15 14 -33 14 -40 0
-7 9 -22 20 -34 11 -12 20 -30 20 -40 0 -10 4 -18 9 -18 5 0 12 -16 16 -36 6
-36 12 -45 48 -85 10 -11 21 -34 24 -52 4 -17 12 -38 20 -45 7 -7 13 -19 13
-25 0 -7 9 -20 20 -30 11 -9 20 -24 20 -32 0 -9 5 -13 10 -10 6 4 13 -7 16
-24 4 -17 12 -31 19 -31 8 0 16 -13 20 -29 3 -16 13 -32 21 -35 8 -3 14 -12
14 -21 0 -8 5 -14 12 -13 6 2 16 -10 22 -27 6 -16 17 -36 23 -43 7 -7 13 -19
13 -27 0 -7 3 -15 8 -17 4 -2 20 -21 37 -43 45 -62 48 -65 73 -90 12 -12 22
-28 22 -34 0 -7 5 -9 10 -6 6 3 10 0 10 -8 0 -7 11 -23 25 -35 14 -12 25 -31
25 -42 0 -11 4 -20 9 -20 5 0 12 -11 15 -24 3 -14 15 -28 26 -31 11 -3 20 -15
20 -25 0 -10 7 -20 15 -24 8 -3 15 -13 15 -21 0 -9 4 -14 9 -10 6 3 15 -5 22
-17 7 -12 18 -29 26 -36 7 -7 13 -24 13 -38 0 -15 6 -24 15 -24 9 0 19 -9 23
-21 5 -11 12 -19 17 -17 6 2 12 -8 13 -22 2 -13 11 -29 19 -35 8 -6 15 -17 16
-26 3 -17 43 -59 57 -59 6 0 10 -7 10 -15 0 -8 9 -19 20 -25 11 -6 20 -19 20
-29 0 -11 7 -21 15 -25 8 -3 15 -12 15 -20 0 -7 9 -16 20 -19 11 -3 20 -12 20
-20 0 -8 7 -17 15 -21 8 -3 15 -12 15 -21 0 -8 5 -15 10 -15 15 0 47 -35 55
-59 3 -11 20 -35 38 -54 48 -52 57 -65 69 -97 5 -17 16 -30 24 -30 8 0 14 -7
14 -15 0 -8 4 -15 9 -15 5 0 12 -14 16 -31 4 -16 22 -46 41 -64 19 -19 34 -41
34 -49 0 -9 9 -20 20 -26 11 -6 20 -17 20 -25 0 -8 4 -15 10 -15 5 0 12 -11
16 -24 3 -13 14 -26 25 -29 12 -3 19 -14 19 -30 0 -14 7 -27 15 -31 8 -3 15
-12 15 -21 0 -8 13 -27 28 -42 15 -16 33 -40 40 -55 6 -16 16 -28 22 -28 5 0
10 -8 10 -19 0 -10 9 -21 20 -24 11 -3 20 -12 20 -21 0 -9 4 -16 9 -16 5 0 12
-12 16 -27 3 -15 15 -33 26 -41 10 -7 19 -24 19 -38 0 -14 4 -23 9 -20 5 3 11
-12 15 -33 4 -27 12 -40 26 -44 14 -3 20 -14 20 -32 0 -14 4 -24 9 -21 11 7
21 -17 21 -49 0 -15 7 -26 20 -30 11 -4 20 -15 20 -26 0 -11 7 -27 15 -35 8
-9 15 -23 15 -32 0 -9 13 -31 30 -48 16 -18 32 -44 36 -58 3 -14 10 -26 15
-26 5 0 9 -7 9 -14 0 -8 11 -27 25 -42 14 -15 25 -33 25 -39 0 -7 7 -15 15
-19 8 -3 15 -15 15 -26 0 -11 9 -29 20 -40 11 -11 20 -29 20 -39 0 -10 7 -21
15 -25 8 -3 15 -16 15 -30 0 -15 7 -25 20 -29 12 -3 20 -14 20 -27 0 -12 7
-28 15 -36 8 -9 15 -23 15 -32 0 -9 16 -34 35 -56 19 -21 35 -45 35 -53 0 -7
9 -23 20 -35 11 -12 20 -32 20 -44 0 -12 7 -24 15 -28 8 -3 15 -15 15 -26 0
-11 7 -20 15 -20 8 0 15 -9 15 -20 0 -11 6 -20 14 -20 8 0 17 -14 21 -30 4
-17 11 -30 16 -30 5 0 9 -7 9 -15 0 -8 9 -24 20 -35 11 -11 23 -34 26 -50 4
-16 12 -31 20 -34 8 -3 14 -13 14 -23 0 -10 9 -24 20 -31 12 -7 20 -23 20 -38
0 -14 4 -23 9 -20 5 3 12 -11 16 -32 4 -20 12 -40 18 -44 7 -4 13 -11 13 -15
5 -28 18 -52 30 -57 8 -3 14 -15 14 -26 0 -12 9 -30 20 -42 11 -12 20 -29 20
-39 0 -9 7 -19 15 -23 9 -3 15 -19 15 -41 0 -24 4 -35 15 -35 14 0 19 -11 16
-37 -1 -7 5 -13 12 -13 16 0 27 -21 27 -50 0 -10 7 -20 15 -24 8 -3 15 -15 15
-26 0 -11 9 -29 20 -40 11 -11 20 -29 20 -40 0 -21 16 -25 56 -14 26 7 21 49
-7 65 -11 5 -19 19 -19 29 0 11 -4 20 -10 20 -5 0 -10 8 -10 19 0 10 -11 30
-25 45 -14 15 -25 34 -25 42 0 9 -7 22 -15 30 -8 9 -15 26 -15 39 0 15 -7 26
-20 30 -14 4 -20 15 -20 36 0 16 -4 29 -10 29 -5 0 -13 12 -16 28 -4 15 -15
34 -26 43 -10 9 -18 21 -18 26 0 6 -7 16 -15 23 -8 7 -15 22 -15 34 0 12 -9
27 -20 34 -11 7 -20 23 -20 37 0 14 -4 25 -9 25 -5 0 -12 14 -16 30 -4 17 -10
28 -15 25 -5 -3 -11 9 -15 26 -4 17 -13 33 -21 36 -7 3 -16 21 -20 40 -4 21
-10 30 -14 23 -5 -8 -10 -3 -14 14 -4 15 -15 35 -26 46 -11 11 -20 29 -20 41
0 11 -4 18 -9 15 -10 -7 -21 17 -21 45 0 10 -6 19 -14 19 -14 0 -56 70 -56 94
0 8 -16 31 -35 50 -21 22 -35 46 -35 61 0 14 -4 25 -9 25 -5 0 -12 8 -16 19
-3 10 -14 29 -25 41 -11 13 -20 34 -20 47 0 12 -4 23 -9 23 -5 0 -13 10 -17
23 -4 12 -15 28 -25 35 -11 7 -19 24 -19 38 0 14 -4 23 -10 19 -6 -4 -13 7
-16 24 -4 17 -13 31 -20 31 -8 0 -17 14 -20 30 -4 17 -10 30 -14 30 -4 0 -11
11 -14 25 -4 14 -11 24 -17 22 -6 -1 -17 14 -24 33 -8 19 -14 31 -14 25 -2
-16 -21 18 -21 38 0 10 -9 27 -20 39 -11 12 -20 29 -20 39 0 9 -7 19 -15 23
-8 3 -15 15 -15 26 0 12 -4 19 -9 16 -5 -3 -14 16 -21 42 -8 26 -19 51 -27 55
-7 4 -13 16 -13 26 0 11 -7 21 -15 25 -8 3 -15 17 -15 31 0 16 -6 25 -15 25
-8 0 -15 9 -15 19 0 11 -7 26 -15 34 -7 8 -17 26 -21 41 -3 14 -12 26 -20 26
-7 0 -16 11 -20 24 -3 14 -12 27 -20 30 -8 3 -14 12 -14 20 0 9 -16 31 -35 50
-19 20 -35 42 -35 51 0 8 -4 15 -8 15 -5 0 -15 12 -23 27 -8 15 -26 39 -41 54
-14 16 -29 37 -33 48 -3 10 -12 22 -20 25 -8 3 -15 16 -15 30 0 13 -7 26 -15
30 -8 3 -15 13 -15 23 0 10 -13 29 -30 43 -16 13 -32 36 -35 51 -4 15 -15 29
-26 32 -12 3 -19 14 -19 30 0 14 -7 27 -15 31 -8 3 -15 13 -15 21 0 9 -4 13
-10 10 -5 -3 -15 5 -22 19 -6 14 -15 26 -19 26 -4 0 -10 14 -14 31 -4 19 -15
33 -26 36 -10 3 -19 11 -19 17 0 7 -13 23 -30 36 -16 14 -29 32 -30 41 0 9 -9
19 -20 22 -11 3 -20 12 -20 21 0 9 -4 16 -9 16 -5 0 -13 10 -17 23 -4 12 -15
28 -25 35 -11 7 -19 19 -19 25 0 7 -13 21 -30 30 -16 10 -30 22 -30 26 0 4 -9
18 -20 31 -11 13 -20 34 -20 47 0 12 -5 23 -12 23 -16 0 -58 49 -58 66 0 14
-14 33 -67 91 -18 19 -33 41 -33 48 0 8 -9 19 -20 25 -11 6 -20 20 -20 31 0
11 -7 22 -15 25 -8 4 -15 15 -15 25 0 10 -6 19 -14 19 -8 0 -17 11 -20 25 -4
14 -11 23 -16 20 -5 -3 -12 5 -16 17 -4 13 -15 29 -25 36 -11 7 -19 18 -19 23
0 6 -16 25 -35 42 -19 17 -35 35 -35 40 0 4 -7 15 -15 23 -8 9 -15 24 -15 34
0 10 -8 21 -17 24 -10 3 -27 25 -38 49 -11 23 -25 46 -32 50 -7 4 -13 14 -13
22 0 8 -9 20 -20 27 -11 7 -20 21 -20 30 0 10 -4 18 -9 18 -5 0 -12 11 -15 25
-4 14 -16 36 -27 48 -11 12 -26 29 -34 38 -8 9 -15 25 -15 37 0 12 -6 22 -14
22 -14 0 -26 21 -26 47 0 8 -7 21 -15 29 -8 9 -15 26 -15 39 0 14 -9 29 -20
35 -11 6 -20 21 -20 33 0 12 -7 31 -15 41 -8 11 -15 29 -15 41 0 12 -5 26 -12
33 -9 9 -9 12 2 12 13 0 13 2 0 11 -12 8 -12 12 -2 16 10 4 8 9 -7 20 -30 20
-30 107 -1 125 16 10 20 24 20 68 1 30 7 73 15 95 8 22 15 66 15 97 0 31 4 59
9 62 5 3 7 15 4 26 -3 12 1 22 10 26 22 8 25 319 3 343 -11 12 -17 57 -21 171
-4 85 -13 177 -21 204 -8 27 -14 80 -14 118 0 39 -4 68 -10 68 -5 0 -10 13
-10 29 0 17 -5 33 -10 36 -17 11 -1 24 42 35 22 6 67 28 99 48 52 33 59 41 59
70 l0 32 -57 -6 c-64 -7 -85 -18 -81 -43 3 -18 -32 -28 -109 -30 -41 -1 -59 4
-79 22 -51 42 -80 73 -87 90 -3 9 -11 17 -17 17 -6 0 -36 25 -67 55 -31 30
-61 55 -68 55 -6 0 -37 25 -68 56 -56 56 -57 57 -57 114 0 32 -4 60 -8 62 -12
4 -24 218 -13 218 6 0 22 5 38 12 15 6 37 13 47 15 11 2 27 10 36 18 9 8 20
15 23 15 10 0 47 39 47 49 0 15 42 41 65 41 12 0 33 -6 48 -12 27 -13 27 -13
27 -124 0 -103 2 -112 23 -132 13 -12 29 -22 35 -22 7 0 12 -4 12 -10 0 -5 9
-10 20 -10 11 0 20 -7 20 -15 0 -8 6 -24 13 -35 17 -28 -3 -40 -70 -40 -39 0
-53 4 -53 14 0 8 -5 16 -10 18 -6 2 -13 27 -17 56 -3 31 -12 56 -19 59 -8 3
-14 11 -14 18 0 7 -9 23 -19 36 -18 23 -20 23 -39 6 -21 -19 -19 -57 4 -92 8
-11 14 -32 14 -47 0 -16 4 -28 9 -28 5 0 12 -15 15 -32 11 -56 46 -71 236 -99
48 -7 50 -4 50 91 0 82 -2 91 -25 115 -14 14 -30 25 -35 25 -6 0 -10 4 -10 9
0 5 -10 11 -22 13 -29 4 -48 42 -48 96 0 32 5 44 18 49 9 4 20 11 24 17 6 9
191 12 308 4 49 -3 100 13 100 32 0 10 7 20 15 24 8 3 15 11 15 19 0 7 16 27
35 44 19 17 35 36 35 42 0 6 9 16 20 23 11 7 20 17 20 23 1 25 47 52 103 59
86 10 132 44 167 124 5 12 16 25 24 28 8 3 17 23 21 45 4 21 11 39 16 39 5 0
9 23 9 51 0 42 3 52 20 56 11 3 20 12 20 20 0 8 9 26 20 40 11 14 20 39 20 54
0 19 5 29 15 29 16 0 21 53 16 185 -2 52 -8 75 -22 91 -11 12 -19 35 -19 56 0
20 -8 50 -17 68 -18 30 -18 31 7 51 14 10 37 22 52 25 15 4 39 17 53 30 14 13
30 24 36 24 5 0 9 11 9 25 0 18 5 25 19 25 10 0 21 7 25 15 3 10 19 15 43 15
59 0 109 18 142 50 16 17 34 30 39 30 5 0 13 8 16 18 12 31 34 65 50 74 9 5
16 15 16 23 0 7 15 30 33 50 17 20 32 40 32 43 1 4 8 23 17 42 9 19 19 62 23
95 4 33 12 66 18 73 7 8 7 16 1 20 -11 8 -11 73 1 91 4 7 2 18 -4 24 -20 20
-12 43 33 89 24 26 47 55 50 66 4 11 13 26 21 32 12 10 15 38 15 119 0 79 4
112 15 127 8 10 15 39 15 62 0 39 5 49 47 88 26 25 57 47 70 50 13 4 23 10 23
15 0 5 7 9 15 9 8 0 15 4 15 9 0 5 16 19 35 32 19 13 35 29 35 36 0 7 9 17 20
23 11 6 20 16 20 23 0 7 13 27 30 44 26 26 38 31 102 36 40 3 88 12 107 20 23
10 55 13 95 10 37 -3 89 2 131 11 184 43 198 45 227 30 15 -8 31 -21 36 -30 8
-14 24 -17 82 -15 67 2 74 0 102 -28 32 -32 91 -51 178 -58 65 -5 96 -18 132
-55 15 -15 32 -28 38 -28 7 0 27 -7 46 -16 23 -11 51 -15 89 -12 30 2 55 1 55
-4 0 -4 7 -8 15 -8 9 0 18 -7 21 -15 4 -8 12 -15 20 -15 8 0 14 -9 14 -20 0
-11 7 -20 15 -20 8 0 15 -6 15 -13 0 -7 16 -19 35 -27 43 -17 105 -81 105
-109 0 -12 6 -21 15 -21 8 0 18 -12 21 -27 8 -30 17 -43 52 -75 12 -12 22 -25
22 -29 0 -4 16 -25 35 -46 19 -21 35 -48 35 -60 0 -13 4 -23 10 -23 5 0 13
-18 16 -39 4 -22 13 -42 20 -45 9 -4 14 -21 14 -52 0 -31 7 -54 20 -71 15 -20
20 -41 20 -89 0 -34 5 -64 10 -66 6 -2 13 -28 17 -58 3 -30 14 -66 25 -79 14
-18 18 -41 18 -102 0 -45 4 -79 10 -81 6 -2 14 -30 17 -63 3 -33 13 -68 22
-78 11 -13 16 -37 15 -76 -1 -71 -24 -107 -74 -116 -19 -4 -49 -15 -66 -26
-17 -10 -40 -19 -51 -19 -25 0 -43 -19 -43 -47 0 -21 3 -22 48 -16 26 3 49 9
52 13 14 19 87 32 123 23 12 -3 17 -15 17 -42 0 -21 3 -41 7 -45 11 -11 13
-45 3 -51 -14 -9 -12 -45 3 -45 8 0 9 -2 1 -8 -7 -4 -12 -40 -13 -85 -2 -76
-11 -120 -29 -131 -4 -2 -9 -33 -10 -67 -1 -35 -6 -65 -10 -68 -5 -3 -12 -13
-15 -21 -5 -13 -6 -13 -6 1 -1 9 -10 24 -21 34 -16 14 -20 31 -20 76 0 32 -4
61 -10 64 -5 3 -10 22 -10 41 0 19 5 34 10 34 21 0 9 48 -20 77 -33 34 -83 43
-231 43 -65 0 -79 3 -79 16 0 8 -5 12 -10 9 -6 -4 -16 -3 -23 2 -13 10 -16 10
-69 0 -21 -5 -38 -12 -38 -17 0 -6 -4 -10 -9 -10 -13 0 -131 -116 -131 -129 0
-22 -43 -91 -56 -91 -9 0 -14 -11 -14 -32 0 -18 -7 -46 -15 -62 -8 -15 -15
-51 -15 -80 0 -48 3 -53 37 -76 20 -14 48 -35 61 -47 14 -13 33 -23 44 -23 10
0 35 -7 56 -16 69 -30 197 -64 240 -64 31 0 65 12 131 46 82 42 91 45 132 37
46 -9 65 -38 36 -54 -9 -6 -17 -32 -22 -74 -3 -36 -10 -65 -14 -65 -15 0 -13
-162 1 -171 10 -6 14 -56 16 -199 3 -151 7 -190 17 -190 11 0 15 -26 17 -112
4 -141 0 -178 -16 -178 -10 0 -15 -24 -18 -86 -2 -47 -9 -89 -15 -92 -5 -4
-13 -42 -16 -85 -3 -48 -11 -85 -20 -95 -8 -10 -18 -36 -22 -59 -4 -24 -11
-43 -16 -43 -5 0 -9 -19 -9 -43 0 -24 -7 -52 -15 -63 -8 -10 -15 -28 -15 -40
0 -11 -8 -29 -18 -40 -10 -10 -21 -27 -25 -36 -3 -10 -11 -18 -17 -18 -5 0
-10 -13 -10 -29 0 -21 -6 -32 -20 -36 -13 -4 -20 -15 -20 -31 0 -14 -7 -27
-15 -30 -9 -4 -15 -19 -15 -35 0 -18 -8 -34 -20 -41 -11 -7 -20 -23 -20 -35 0
-12 -7 -28 -15 -37 -8 -8 -15 -22 -15 -30 0 -9 -9 -25 -20 -36 -11 -11 -20
-31 -20 -45 0 -14 -7 -28 -15 -31 -8 -4 -15 -12 -15 -19 0 -7 -7 -18 -14 -25
-15 -12 -49 -78 -61 -117 -3 -13 -11 -23 -16 -23 -5 0 -9 -10 -9 -23 0 -13 -8
-32 -18 -43 -10 -11 -22 -32 -26 -47 -3 -15 -11 -27 -16 -27 -6 0 -10 -18 -10
-39 0 -27 -6 -44 -18 -53 -10 -7 -22 -31 -25 -53 -4 -22 -11 -41 -17 -43 -5
-2 -10 -15 -10 -29 0 -14 -10 -38 -22 -53 -13 -15 -30 -37 -38 -49 -8 -11 -18
-21 -23 -21 -5 0 -23 -11 -41 -25 -18 -14 -38 -25 -44 -25 -7 0 -12 -7 -12
-15 0 -8 -7 -15 -15 -15 -8 0 -15 -6 -15 -13 0 -18 -113 -47 -210 -53 -47 -3
-92 -8 -100 -11 -24 -10 -34 -10 -46 -1 -7 5 -72 11 -145 14 -83 4 -162 13
-207 25 -40 10 -83 19 -95 19 -13 0 -27 4 -32 9 -12 11 -205 71 -228 71 -9 0
-32 9 -52 20 -20 11 -47 20 -60 20 -25 0 -45 7 -130 45 -27 13 -85 33 -127 45
-43 13 -78 26 -78 31 0 4 -30 17 -67 29 -38 13 -81 33 -98 45 -16 12 -48 28
-70 35 -22 7 -45 16 -51 21 -6 5 -14 6 -17 2 -4 -3 -9 2 -13 11 -4 9 -22 23
-40 31 -19 8 -34 19 -34 25 0 6 -4 8 -10 5 -5 -3 -15 3 -22 15 -7 11 -18 20
-25 20 -7 0 -13 3 -13 8 0 4 -14 13 -31 21 -17 7 -33 20 -37 29 -8 21 -32 44
-63 60 -42 22 -109 86 -109 105 0 9 -7 17 -16 17 -9 0 -18 9 -21 20 -3 11 -12
20 -19 20 -8 0 -14 9 -14 20 0 13 -7 20 -20 20 -11 0 -20 7 -20 15 0 8 -4 15
-9 15 -5 0 -12 12 -15 26 -4 15 -23 40 -42 57 -18 17 -34 37 -34 44 0 7 -7 13
-15 13 -8 0 -15 7 -15 16 0 18 -44 64 -61 64 -5 0 -9 11 -9 25 0 16 -6 25 -16
25 -9 0 -18 9 -21 20 -3 11 -9 20 -14 20 -5 0 -9 9 -9 19 0 11 -6 26 -13 33
-22 22 -37 55 -37 81 0 14 -14 38 -35 58 -19 19 -35 42 -35 52 0 9 -5 17 -10
17 -6 0 -13 7 -17 16 -9 23 -48 64 -62 64 -6 0 -11 6 -11 13 0 15 -54 49 -64
40 -15 -15 -4 -45 29 -77 19 -20 35 -41 35 -48 0 -7 9 -19 20 -26 11 -7 20
-21 20 -33 0 -11 7 -27 15 -35 8 -9 15 -30 15 -48 0 -31 43 -130 61 -142 5 -3
9 -12 9 -20 0 -16 11 -32 48 -69 12 -12 22 -31 22 -43 0 -11 7 -22 15 -26 8
-3 15 -11 15 -18 0 -7 9 -19 20 -26 11 -7 20 -19 20 -27 0 -8 4 -15 9 -15 5 0
13 -10 17 -22 6 -22 11 -28 54 -75 11 -13 20 -29 20 -37 0 -8 9 -18 20 -21 11
-3 20 -15 20 -25 0 -10 7 -20 15 -24 8 -3 15 -11 15 -19 0 -7 13 -20 28 -29
16 -10 42 -37 58 -60 16 -24 34 -46 40 -50 23 -15 89 -74 141 -125 29 -29 59
-53 68 -53 8 0 15 -7 15 -15 0 -9 7 -18 15 -21 8 -4 15 -9 15 -13 0 -4 23 -31
50 -59 28 -28 50 -56 50 -61 0 -5 14 -18 30 -28 17 -9 33 -25 36 -35 3 -10 11
-18 18 -18 6 0 23 -13 36 -30 14 -16 32 -29 40 -30 8 0 23 -13 34 -28 10 -16
32 -34 49 -42 16 -7 32 -21 34 -31 3 -11 11 -19 19 -19 7 0 18 -9 24 -19 5
-11 19 -22 29 -26 11 -3 23 -15 26 -26 4 -12 20 -25 37 -31 16 -6 33 -21 38
-34 5 -13 16 -24 25 -24 8 0 15 -4 15 -10 0 -5 5 -10 11 -10 7 0 25 -14 41
-30 15 -16 31 -30 34 -30 3 0 24 -18 46 -40 23 -22 48 -40 57 -40 9 0 21 -10
26 -22 6 -12 26 -30 44 -41 19 -10 59 -43 88 -73 29 -29 64 -61 78 -70 14 -9
25 -20 25 -25 0 -13 46 -59 59 -59 6 0 11 -9 11 -19 0 -10 7 -21 15 -25 8 -3
15 -10 15 -16 0 -6 14 -25 30 -43 17 -18 33 -42 36 -54 3 -12 12 -24 20 -27 8
-3 14 -15 14 -26 0 -11 7 -23 15 -26 21 -8 20 -87 0 -104 -9 -7 -15 -20 -14
-29 4 -28 -13 -111 -22 -111 -13 0 -11 -308 2 -312 5 -2 13 -23 16 -46 4 -30
10 -42 19 -38 9 3 15 -9 20 -40 3 -24 10 -44 14 -44 4 0 10 -9 13 -20 3 -12
14 -20 26 -20 18 0 21 6 21 44 0 29 -5 46 -14 49 -8 3 -18 26 -21 51 -4 25
-11 44 -15 41 -14 -9 -23 123 -17 259 3 82 9 132 16 134 6 2 11 16 11 31 0 32
40 90 58 84 6 -3 12 -13 12 -24 0 -10 5 -19 10 -19 6 0 10 -6 10 -13 0 -7 11
-23 25 -35 14 -12 25 -31 25 -42 0 -11 3 -20 8 -20 8 0 32 -48 32 -66 0 -6 7
-14 15 -18 8 -3 15 -11 15 -18 0 -7 9 -19 20 -26 11 -7 20 -21 20 -31 0 -10 7
-21 15 -25 8 -3 15 -14 15 -25 0 -10 7 -21 15 -25 8 -3 15 -14 15 -25 0 -11 9
-25 20 -31 13 -7 20 -21 20 -41 0 -17 4 -28 9 -24 6 3 13 -15 17 -41 3 -25 12
-48 19 -50 7 -3 16 -30 20 -60 3 -30 10 -54 14 -54 5 0 11 -31 15 -69 5 -52
11 -69 20 -65 15 6 26 -44 26 -124 0 -29 4 -51 9 -48 8 6 21 -71 21 -132 0
-18 4 -31 9 -28 17 11 31 -47 31 -129 0 -52 4 -85 11 -87 7 -2 13 -47 17 -116
2 -61 9 -109 13 -106 5 3 9 -8 9 -25 0 -16 5 -33 10 -36 6 -3 10 -46 10 -94 0
-53 5 -92 12 -99 7 -7 13 -63 16 -144 3 -82 9 -136 16 -140 8 -5 11 -179 11
-618 0 -458 3 -610 12 -610 36 0 43 12 43 75 0 35 4 67 10 70 6 3 10 31 10 61
0 30 -4 54 -10 54 -5 0 -10 7 -10 15 0 8 5 15 10 15 6 0 10 7 10 16 0 8 -4 12
-10 9 -6 -4 -10 10 -10 35 0 25 4 39 10 35 6 -4 10 12 10 39 0 25 -4 46 -10
46 -15 0 -12 87 3 93 10 4 10 6 0 6 -10 1 -13 49 -13 207 0 134 3 203 10 199
6 -3 10 0 10 9 0 8 -4 16 -9 18 -6 2 -13 93 -17 203 -6 159 -10 202 -22 211
-10 8 -16 39 -20 110 -3 56 -10 102 -16 107 -8 5 -6 10 4 18 11 8 12 12 3 16
-7 2 -13 11 -13 19 0 8 6 14 13 14 8 0 7 3 -3 10 -10 6 -15 35 -18 109 -3 56
-8 101 -13 101 -5 0 -9 15 -9 34 0 19 -4 38 -10 41 -5 3 -10 42 -10 85 0 44
-4 80 -10 82 -6 2 -13 33 -17 71 -3 37 -10 67 -14 67 -5 0 -9 18 -9 39 0 22
-4 43 -10 46 -5 3 -10 26 -10 50 0 24 -4 46 -9 49 -5 3 -12 27 -16 53 -4 27
-12 51 -18 55 -6 4 -13 37 -15 73 -3 43 -9 68 -18 72 -7 2 -16 25 -20 49 -3
24 -10 44 -15 44 -5 0 -12 18 -15 40 -4 23 -12 40 -20 40 -7 0 -15 18 -19 43
-6 40 -30 76 -90 138 -8 9 -15 23 -15 32 0 10 -4 17 -8 17 -5 0 -15 12 -23 28
-8 15 -18 30 -22 33 -4 3 -11 23 -14 45 -3 21 -15 45 -25 52 -10 7 -18 20 -18
28 0 9 -7 22 -15 30 -8 9 -15 26 -15 40 0 13 -4 24 -10 24 -5 0 -13 12 -16 28
-4 15 -16 39 -27 54 -18 24 -19 38 -14 128 4 73 10 106 21 119 9 10 16 32 16
49 0 18 5 32 13 33 27 3 52 -4 59 -14 4 -6 10 -8 14 -5 7 8 154 -135 154 -149
0 -4 16 -19 35 -32 19 -13 35 -29 35 -36 0 -7 7 -15 15 -19 8 -3 15 -15 15
-26 0 -11 6 -20 14 -20 8 0 18 -9 21 -20 3 -11 10 -20 15 -20 20 0 81 -70 86
-100 4 -17 9 -28 12 -25 9 9 32 -17 32 -35 0 -10 5 -20 10 -22 6 -2 13 -21 17
-43 3 -22 12 -44 20 -48 7 -4 13 -16 13 -25 0 -10 9 -25 20 -35 11 -9 20 -26
20 -38 0 -11 7 -27 15 -35 8 -9 15 -24 15 -35 0 -10 5 -19 12 -19 15 0 58 -48
58 -64 0 -7 9 -19 20 -29 11 -9 20 -23 20 -31 0 -8 10 -16 23 -20 14 -3 28
-19 37 -40 7 -19 19 -37 27 -40 7 -3 13 -12 13 -20 0 -8 31 -45 70 -83 38 -37
70 -72 70 -76 0 -15 65 -68 103 -85 25 -12 37 -23 37 -38 0 -13 13 -28 40 -43
22 -12 48 -34 56 -47 9 -13 20 -24 26 -24 13 0 44 -32 51 -52 4 -10 13 -18 20
-18 8 0 25 -12 39 -27 14 -16 44 -43 66 -62 64 -52 48 -71 -25 -31 -21 11 -43
20 -50 20 -7 0 -30 9 -50 20 -21 11 -45 20 -55 20 -9 0 -19 4 -23 9 -3 5 -19
12 -35 16 -17 4 -30 10 -30 15 0 5 -26 14 -57 21 -32 7 -65 18 -74 26 -8 7
-21 13 -27 13 -7 0 -12 5 -12 10 0 6 -22 10 -49 10 -33 0 -63 8 -97 26 -27 15
-65 28 -84 29 -19 2 -61 9 -94 18 -62 16 -73 16 -94 3 -17 -10 -6 -45 25 -73
13 -13 26 -23 28 -23 2 0 16 -5 32 -12 15 -6 30 -12 33 -13 46 -11 60 -18 60
-31 0 -8 4 -13 9 -9 5 3 12 -4 16 -15 3 -11 15 -25 26 -30 10 -6 19 -16 19
-23 0 -11 36 -41 50 -42 13 -1 80 -48 80 -56 0 -5 6 -9 13 -9 6 0 25 -14 41
-30 15 -16 41 -32 56 -35 16 -3 31 -13 34 -21 3 -8 12 -14 20 -14 8 0 16 -4
18 -8 2 -5 35 -19 73 -30 48 -15 83 -34 111 -60 l41 -37 -94 -235 c-179 -449
-305 -801 -384 -1070 -40 -134 -139 -523 -135 -527 5 -5 258 85 268 95 5 5 22
60 39 123 73 279 173 588 290 897 119 313 242 612 253 612 18 0 56 -30 56 -45
0 -7 14 -19 30 -27 17 -7 30 -16 30 -20 0 -5 7 -8 16 -8 9 0 18 -9 21 -19 3
-12 17 -21 38 -25 19 -4 35 -10 37 -15 2 -5 23 -20 48 -34 l45 -25 -3 -153
c-2 -84 -7 -158 -11 -164 -5 -5 -11 -37 -13 -69 -3 -37 -11 -63 -20 -70 -10
-8 -19 -36 -23 -79 -4 -37 -11 -67 -15 -67 -4 0 -10 -18 -14 -40 -3 -23 -13
-43 -21 -46 -8 -4 -15 -19 -15 -34 0 -16 -6 -35 -14 -42 -7 -8 -17 -29 -21
-46 -3 -18 -13 -32 -21 -32 -9 0 -14 -11 -14 -29 0 -16 -6 -36 -14 -44 -8 -8
-18 -31 -21 -51 -4 -20 -11 -36 -16 -36 -5 0 -9 -7 -9 -15 0 -15 -19 -55 -31
-65 -7 -5 -17 -80 -12 -80 2 0 26 11 53 25 44 22 51 30 56 65 4 22 13 45 20
51 8 6 14 18 14 25 0 8 6 14 14 14 8 0 16 15 19 36 3 20 13 45 22 54 32 35
144 419 145 495 1 16 7 57 15 90 8 33 18 130 21 215 l7 155 -142 134 c-136
128 -158 159 -128 178 7 4 23 23 36 41 21 30 22 36 10 65 -25 62 -186 216
-460 439 -94 77 -298 271 -349 333 -61 73 -187 307 -206 379 -3 15 -15 31 -25
37 -11 5 -19 16 -19 23 0 7 -16 28 -35 47 -19 19 -35 39 -35 45 0 7 -7 14 -15
18 -8 3 -15 11 -15 18 0 7 -9 19 -20 26 -11 7 -20 17 -20 23 0 11 -7 20 -60
79 -19 22 -44 51 -55 66 -45 59 -246 260 -343 342 l-103 87 3 74 c4 90 -10 84
209 100 85 7 180 19 212 27 32 7 68 14 80 14 34 0 126 38 172 71 44 31 78 72
95 111 6 13 14 30 19 38 29 51 42 86 66 174 15 55 31 107 35 115 5 9 30 63 56
121 64 141 133 272 216 407 37 61 68 116 68 122 0 6 9 21 20 33 10 13 43 61
73 107 49 78 61 89 141 139 48 30 90 62 93 71 12 33 47 61 76 61 22 0 52 20
123 81 52 44 94 84 94 87 0 4 20 27 45 52 24 25 44 50 45 56 0 5 8 19 19 30
10 11 22 30 25 42 4 12 14 22 22 22 19 0 72 84 80 128 4 18 13 36 20 39 8 3
14 19 14 37 0 24 7 38 29 53 54 41 133 333 146 543 3 52 8 118 11 146 4 33 2
54 -5 58 -7 5 -11 47 -11 113 l0 106 58 53 c86 78 147 206 188 394 16 70 19
126 18 320 0 140 -5 247 -12 265 -10 28 -10 26 -11 -27 -1 -45 -5 -58 -16 -58
-16 0 -16 1 -20 37 -1 12 -5 28 -8 37 -7 19 12 68 24 61 38 -24 -3 128 -77
280 -58 120 -111 191 -191 254 -28 22 -54 44 -57 49 -3 5 11 33 31 62 50 75
110 200 118 246 4 21 11 51 17 66 8 22 6 31 -11 49 -19 20 -21 35 -21 131 0
89 3 114 20 143 15 26 20 54 20 105 0 40 -4 70 -10 70 -5 0 -10 9 -10 19 0 11
-4 23 -10 26 -5 3 -10 21 -10 40 0 19 -4 36 -9 39 -4 3 -11 21 -14 40 -7 41
-74 166 -89 166 -16 0 -37 32 -38 57 0 49 -210 297 -260 308 -18 4 -30 13 -30
22 0 14 -112 133 -126 133 -3 0 -18 9 -33 19 -15 11 -40 23 -56 27 -32 8 -64
40 -65 64 0 30 -195 160 -237 160 -31 0 -29 -8 13 -51 72 -74 14 -90 -137 -39
-48 16 -120 45 -158 65 -39 19 -75 35 -81 35 -15 0 -59 52 -60 70 -1 27 -148
120 -190 120 -14 0 -30 4 -36 9 -5 4 -55 23 -111 41 -77 25 -107 39 -119 58
-9 14 -33 42 -54 62 -36 35 -42 37 -186 61 -124 20 -184 24 -354 24 -265 0
-398 -23 -593 -102 -83 -33 -89 -34 -112 -19 -13 9 -32 16 -42 16 -10 0 -44
27 -77 60 -32 33 -66 62 -75 65 -15 5 -32 29 -47 68 -3 9 -10 17 -15 17 -5 0
-9 6 -9 14 0 7 -9 24 -19 38 -11 13 -22 40 -26 60 -4 20 -30 78 -58 130 l-52
93 -85 0 c-106 -1 -266 -22 -302 -41 -15 -8 -40 -14 -55 -14 -15 0 -41 -7 -56
-15 -15 -8 -54 -19 -87 -25 -32 -6 -85 -20 -117 -31 -144 -50 -211 -69 -249
-69 -37 0 -43 3 -49 28 -3 15 -12 34 -20 42 -7 8 -15 33 -18 55 -7 55 -40 145
-52 144 -5 -1 -84 -21 -175 -45z m74 -90 c9 -3 16 -12 16 -19 0 -7 6 -18 14
-24 8 -6 17 -31 20 -56 4 -24 14 -49 21 -55 9 -7 15 -29 15 -51 0 -21 5 -41
10 -44 19 -11 10 -23 -32 -45 -24 -12 -54 -28 -68 -35 -14 -7 -50 -25 -80 -39
-30 -15 -75 -38 -100 -51 -25 -14 -51 -25 -57 -25 -7 0 -13 -4 -13 -10 0 -5
-9 -10 -19 -10 -11 0 -22 -4 -25 -9 -3 -4 -33 -19 -66 -31 -33 -12 -64 -28
-68 -34 -9 -14 -66 -46 -84 -46 -7 0 -31 -14 -52 -30 -22 -16 -54 -33 -73 -36
-18 -3 -33 -10 -33 -15 0 -5 -6 -9 -14 -9 -8 0 -16 -6 -19 -14 -3 -7 -17 -16
-31 -20 -14 -3 -47 -20 -73 -36 -26 -16 -58 -34 -71 -40 -13 -5 -43 -24 -67
-40 -24 -17 -48 -30 -54 -30 -6 0 -11 -4 -11 -10 0 -5 -24 -21 -54 -35 -30
-14 -56 -32 -58 -39 -3 -15 -107 -106 -120 -106 -4 0 -8 -7 -8 -16 0 -9 -11
-29 -25 -46 -14 -16 -25 -38 -25 -49 0 -10 -4 -19 -8 -19 -4 0 -13 -12 -20
-27 -6 -16 -23 -48 -37 -72 -14 -24 -25 -51 -25 -59 0 -7 -9 -16 -19 -19 -13
-3 -21 -16 -24 -41 -7 -53 -32 -113 -51 -124 -10 -6 -16 -22 -16 -44 0 -36
-32 -118 -50 -129 -5 -3 -10 -18 -10 -33 0 -15 -9 -38 -20 -52 -11 -14 -20
-38 -20 -53 0 -15 -7 -30 -15 -33 -8 -4 -15 -17 -15 -30 0 -12 -8 -29 -18 -36
-11 -7 -22 -30 -26 -50 -4 -21 -11 -38 -16 -38 -6 0 -10 -8 -10 -19 0 -16 -54
-71 -71 -71 -3 0 -12 7 -19 15 -10 13 -10 19 4 33 12 14 16 39 16 99 0 59 4
84 15 93 10 8 15 31 15 71 0 69 19 210 29 224 5 6 11 41 14 79 4 38 10 72 15
75 5 3 10 46 11 96 1 49 9 105 17 123 8 19 14 49 14 68 0 18 5 36 10 39 13 8
13 132 0 140 -8 5 -8 11 0 20 7 9 7 15 1 19 -13 8 -13 294 0 302 5 3 9 14 9
25 0 10 5 19 10 19 6 0 10 13 10 29 0 23 6 31 33 41 71 29 123 51 150 65 16 8
39 15 52 15 12 0 28 7 35 15 7 8 24 15 39 15 38 0 149 37 176 59 13 10 52 23
87 30 95 18 141 32 153 45 13 15 67 32 130 41 27 4 81 22 120 40 38 18 91 36
118 39 26 4 47 11 47 17 0 5 11 9 24 9 14 0 27 4 30 9 5 7 44 17 101 26 50 8
85 19 85 26 0 5 15 9 33 9 18 0 37 4 43 9 22 22 116 37 148 25z m1126 -64 c17
-17 30 -41 30 -55 0 -14 9 -34 20 -45 15 -15 20 -33 20 -74 0 -35 5 -58 15
-66 8 -7 15 -21 15 -31 0 -10 9 -24 20 -31 11 -7 20 -18 20 -24 0 -6 32 -44
72 -84 l71 -73 -24 -19 c-13 -10 -45 -39 -71 -65 -37 -35 -48 -53 -48 -77 0
-22 -12 -44 -39 -74 -37 -41 -40 -42 -87 -37 -27 4 -54 11 -61 16 -18 16 -71
20 -160 13 -67 -5 -87 -11 -107 -29 -14 -13 -35 -26 -46 -30 -11 -3 -20 -12
-20 -19 0 -7 -15 -29 -34 -50 -24 -25 -36 -49 -38 -74 l-3 -37 -160 -1 c-161
-1 -243 -15 -285 -49 -8 -7 -34 -22 -56 -35 -23 -12 -47 -33 -53 -46 -6 -13
-14 -24 -19 -24 -5 0 -18 -20 -30 -44 -13 -24 -29 -47 -37 -50 -8 -3 -15 -14
-15 -25 0 -29 -24 -37 -113 -39 -57 -2 -89 -8 -120 -24 -23 -11 -43 -20 -45
-18 -6 5 -102 -61 -102 -70 0 -5 -12 -22 -27 -38 -45 -47 -73 -90 -79 -122 -4
-16 -10 -30 -15 -30 -5 0 -9 -46 -9 -102 0 -86 -3 -105 -19 -122 -10 -12 -21
-40 -24 -64 -2 -24 -10 -49 -16 -55 -6 -6 -11 -19 -11 -28 0 -11 -11 -20 -31
-24 -17 -4 -33 -5 -35 -2 -3 2 -21 -2 -42 -10 -20 -7 -45 -16 -54 -20 -10 -3
-18 -9 -18 -14 0 -5 -5 -9 -10 -9 -20 0 -90 -85 -90 -109 0 -25 -37 -71 -57
-71 -17 0 -110 -95 -118 -120 -3 -11 -12 -20 -19 -20 -9 0 -15 -20 -19 -57 -3
-31 -12 -60 -19 -65 -10 -6 -10 -10 2 -17 22 -15 27 -143 6 -160 -9 -7 -16
-19 -16 -25 0 -6 -16 -28 -35 -48 -19 -20 -35 -42 -35 -48 0 -6 -7 -13 -15
-16 -8 -4 -15 -12 -15 -20 0 -7 -9 -28 -20 -46 -11 -18 -20 -43 -20 -54 0 -12
-7 -27 -15 -34 -11 -9 -15 -35 -15 -106 0 -79 -3 -95 -18 -106 -11 -7 -22 -30
-26 -50 -4 -21 -11 -38 -16 -38 -6 0 -10 -13 -10 -29 0 -15 -9 -40 -20 -54
-11 -14 -20 -30 -20 -36 0 -20 -32 -61 -46 -61 -8 0 -31 9 -51 20 -21 11 -45
20 -53 20 -9 0 -33 9 -55 20 -22 11 -52 20 -67 20 -36 0 -109 28 -128 50 -8 9
-37 23 -65 30 -27 7 -61 21 -75 31 -14 9 -54 26 -89 36 -35 11 -74 29 -86 41
-12 11 -34 24 -48 27 -15 4 -27 12 -27 17 0 15 -43 47 -63 48 -20 0 -105 38
-113 51 -3 5 -15 9 -27 9 -46 1 -88 62 -53 76 8 3 17 16 20 30 4 13 11 24 16
24 6 0 10 9 10 20 0 11 7 23 15 26 8 4 15 11 15 16 0 6 25 34 55 63 30 29 55
57 55 62 0 5 16 23 35 39 19 16 35 34 35 39 0 6 8 17 18 26 17 15 63 70 103
122 11 15 27 27 34 27 8 0 16 9 20 20 3 11 19 27 36 37 16 9 29 22 29 28 0 13
48 65 60 65 6 0 10 10 10 23 0 23 39 67 59 67 6 0 11 10 11 23 0 12 16 38 35
57 19 19 35 37 35 40 0 4 14 22 30 40 17 18 30 42 30 51 0 10 8 26 19 36 10
10 21 30 25 46 3 15 11 27 16 27 6 0 10 13 10 28 0 16 9 37 19 46 10 9 22 37
26 62 3 24 10 44 16 44 5 0 9 11 9 25 0 14 9 34 19 44 11 11 23 36 27 55 3 20
10 36 15 36 5 0 9 15 9 34 0 43 9 66 25 66 7 0 15 18 19 40 3 22 11 40 16 40
6 0 10 11 10 25 0 14 9 33 20 42 11 10 20 25 20 35 0 9 6 23 14 30 7 8 17 25
21 38 4 13 14 30 21 38 8 7 12 18 9 22 -3 5 3 15 15 22 11 7 20 21 20 31 0 10
7 20 15 23 8 4 15 15 15 26 0 11 8 22 20 25 11 3 20 9 20 14 0 5 4 9 10 9 5 0
20 10 33 23 48 46 109 93 146 112 22 11 48 28 58 36 10 9 40 29 68 44 27 15
60 36 74 46 13 10 31 19 40 19 10 0 21 4 27 9 17 17 103 61 118 61 9 0 16 3
16 8 0 4 19 16 43 27 23 11 57 30 76 42 19 13 52 28 73 35 22 6 42 17 45 24 2
7 27 18 54 24 27 7 49 16 49 21 0 5 5 9 12 9 7 0 29 11 49 26 20 14 46 26 58
27 11 1 21 5 21 9 0 4 6 8 14 8 7 0 24 9 37 19 14 10 45 25 69 32 25 7 54 19
65 26 11 7 27 13 37 13 10 0 18 7 18 15 0 8 6 15 13 15 13 0 63 24 107 51 14
9 54 24 90 34 36 11 81 29 100 42 19 12 65 28 103 35 37 7 67 16 67 20 0 5 14
8 31 8 17 0 43 6 57 14 37 19 262 63 335 65 30 1 44 -5 67 -29z m2490 -912 c0
-5 7 -8 15 -8 8 0 15 -9 15 -20 0 -11 5 -20 11 -20 22 0 59 -45 59 -72 0 -15
5 -30 10 -33 12 -8 13 -42 2 -49 -22 -13 -91 56 -122 122 -18 37 -36 74 -41
83 -4 9 -6 19 -3 22 7 6 54 -16 54 -25z m-3673 -428 c30 0 43 -4 43 -14 0 -23
-42 -43 -105 -49 -62 -5 -139 -40 -190 -84 -14 -13 -32 -23 -40 -23 -8 0 -15
-8 -15 -17 0 -25 -32 -67 -52 -71 -22 -4 -24 30 -3 48 8 7 26 36 40 66 14 30
32 54 39 54 8 0 16 9 19 20 3 13 17 22 36 26 17 4 31 10 31 15 0 4 27 13 60
20 33 6 63 16 66 21 4 6 10 6 17 -1 6 -6 30 -11 54 -11z m-518 -705 c29 -17 0
-74 -51 -99 -31 -16 -103 -21 -132 -10 -20 8 -21 48 -1 64 8 7 15 18 15 25 0
27 133 43 169 20z m3979 -2021 c8 -14 25 -16 94 -15 64 1 96 -3 129 -17 82
-35 99 -105 21 -82 -21 5 -78 4 -165 -6 -105 -11 -143 -20 -187 -42 -30 -15
-61 -33 -68 -39 -34 -32 -44 3 -13 44 11 13 17 31 14 39 -3 9 1 14 11 14 9 0
19 8 23 18 10 28 35 52 55 52 11 0 18 7 18 19 0 12 8 21 23 24 12 2 25 5 29 6
4 0 11 -6 16 -15z"/>
<path d="M11035 17233 c-78 -16 -147 -38 -156 -50 -7 -7 -37 -21 -68 -29 -31
-9 -58 -20 -61 -24 -3 -4 -35 -22 -72 -40 -38 -18 -68 -36 -68 -40 0 -5 -17
-17 -37 -27 -24 -13 -38 -27 -38 -39 0 -24 28 -29 62 -11 105 55 129 67 139
67 7 0 14 6 17 14 3 8 23 19 44 26 47 15 99 36 137 57 46 25 128 15 256 -34 8
-3 56 -20 105 -37 50 -17 97 -36 105 -41 28 -19 114 -34 133 -23 24 12 77 0
77 -18 0 -8 4 -14 10 -14 12 0 80 -46 102 -70 23 -24 58 -15 58 15 0 13 -7 25
-15 29 -8 3 -15 14 -15 25 0 18 -40 68 -58 72 -35 9 -42 12 -42 20 0 5 -4 9
-10 9 -17 0 -100 54 -100 66 0 12 -62 44 -85 44 -8 0 -15 4 -15 9 0 5 -15 12
-32 16 -92 20 -107 21 -134 10 -34 -14 -100 -8 -129 11 -19 13 -67 16 -110 7z"/>
<path d="M11215 16797 c-22 -5 -75 -20 -118 -33 -43 -13 -89 -24 -102 -24 -14
0 -41 -10 -62 -21 -21 -12 -60 -28 -88 -36 -52 -15 -95 -51 -95 -78 0 -8 4
-15 9 -15 24 0 147 43 157 55 6 8 41 19 79 25 37 6 77 16 88 22 33 17 203 -9
233 -37 13 -12 24 -29 24 -37 0 -8 4 -18 9 -23 5 -6 12 -25 16 -44 l7 -34 -66
7 c-65 7 -251 -9 -271 -24 -9 -7 -105 -30 -182 -45 -17 -3 -34 -13 -37 -21 -3
-8 -11 -14 -18 -14 -7 0 -25 -6 -40 -14 -14 -8 -45 -17 -67 -21 -23 -4 -41
-10 -41 -13 0 -9 -50 -32 -67 -32 -20 0 -15 -34 10 -62 12 -14 37 -29 55 -33
31 -6 32 -8 32 -55 l0 -48 33 5 c17 3 34 9 35 14 2 5 10 9 19 9 8 0 28 8 44
17 29 17 33 17 101 -18 10 -5 24 -9 32 -9 8 0 16 -5 18 -12 14 -42 375 -3 456
50 20 13 25 12 48 -2 14 -10 37 -16 52 -14 22 2 28 9 30 35 2 24 -2 34 -17 43
-13 7 -21 21 -21 38 0 16 -8 32 -20 40 -17 10 -20 23 -20 88 0 54 -4 80 -15
90 -9 9 -15 33 -15 57 0 31 -5 45 -20 55 -13 8 -20 23 -20 43 0 31 0 31 43 25
81 -13 131 -30 152 -54 l20 -24 20 22 c19 21 19 21 -21 56 -49 44 -111 70
-189 79 -5 1 -41 5 -80 9 -38 4 -74 11 -80 15 -5 4 -28 3 -50 -2z"/>
<path d="M12549 15568 c-1 -18 0 -43 0 -55 1 -11 -3 -24 -8 -28 -6 -3 -11 -17
-11 -31 0 -13 -4 -24 -10 -24 -5 0 -10 -8 -10 -18 0 -10 -7 -27 -15 -38 -8
-10 -15 -30 -15 -42 0 -15 -7 -26 -20 -29 -11 -3 -20 -12 -20 -19 0 -8 -6 -14
-14 -14 -8 0 -16 -7 -20 -15 -3 -8 -12 -15 -21 -15 -8 0 -15 -4 -15 -10 0 -5
-4 -10 -10 -10 -5 0 -23 -13 -38 -30 -16 -16 -34 -30 -41 -30 -6 0 -11 -18
-11 -45 0 -25 4 -45 9 -45 5 0 11 -18 15 -40 3 -22 11 -40 16 -40 6 0 15 -12
20 -26 8 -21 15 -25 42 -22 30 3 33 6 36 41 2 28 0 37 -12 37 -41 0 -5 60 45
75 13 5 38 18 54 30 17 13 41 26 53 30 13 4 34 17 45 28 20 20 22 32 22 160 0
96 -4 140 -12 145 -8 5 -9 13 -3 22 13 20 13 60 0 60 -5 0 -10 7 -10 15 0 8
-9 15 -20 15 -16 0 -20 -7 -21 -32z"/>
<path d="M11633 15520 c-13 -5 -23 -15 -23 -21 0 -7 -7 -19 -15 -28 -8 -9 -23
-25 -33 -37 -11 -12 -22 -33 -26 -48 -9 -35 4 -146 16 -146 5 0 30 -14 54 -32
46 -33 107 -46 133 -29 12 8 11 13 -10 30 -13 11 -33 23 -44 27 -11 4 -37 24
-57 45 -37 37 -48 59 -28 59 6 0 10 11 10 25 0 13 8 32 19 42 10 10 22 28 25
41 4 12 12 22 17 22 5 0 9 14 9 30 0 32 -9 35 -47 20z"/>
<path d="M11905 15373 c-16 -2 -34 -9 -39 -14 -6 -5 -18 -9 -28 -9 -11 0 -18
-7 -18 -20 0 -10 -8 -23 -17 -29 -17 -9 -17 -10 0 -29 11 -12 36 -22 65 -25
41 -5 49 -2 67 19 32 39 128 44 215 10 8 -3 23 1 33 8 18 14 17 15 -4 40 -12
14 -30 26 -39 26 -9 0 -20 4 -25 9 -12 11 -166 21 -210 14z"/>
<path d="M11886 14727 c-20 -5 -36 -13 -36 -18 0 -5 -6 -9 -13 -9 -7 0 -28 -9
-48 -19 -20 -11 -58 -22 -85 -26 -27 -4 -54 -12 -61 -17 -7 -5 -17 -7 -23 -3
-5 3 -10 2 -10 -4 0 -5 -14 -12 -31 -16 -17 -4 -33 -13 -36 -21 -3 -8 -11 -14
-19 -14 -8 0 -14 -4 -14 -10 0 -5 -6 -10 -14 -10 -7 0 -35 -12 -62 -27 -37
-20 -64 -27 -109 -27 -40 -1 -71 -8 -92 -21 -32 -19 -43 -35 -23 -35 6 0 10
-8 10 -19 0 -10 14 -33 32 -52 29 -30 39 -34 95 -37 35 -3 63 -8 63 -12 0 -12
40 -20 70 -14 17 4 30 15 37 33 9 26 16 28 119 45 60 10 129 27 154 39 61 28
190 33 234 9 17 -9 33 -20 34 -24 2 -5 11 -8 19 -8 9 0 31 -9 49 -20 31 -20
38 -20 120 -9 101 14 108 11 119 -72 4 -28 13 -53 22 -58 14 -7 14 -11 -3 -34
-10 -15 -25 -27 -31 -27 -7 0 -13 -4 -13 -9 0 -16 -74 -25 -187 -22 -87 2
-119 0 -144 -13 -17 -9 -35 -13 -39 -11 -10 6 -18 -24 -12 -47 4 -15 20 -17
121 -18 64 -1 121 -2 126 -2 17 -1 148 29 178 41 17 7 27 18 27 31 0 11 7 20
15 20 8 0 15 7 15 15 0 7 8 18 17 23 13 8 16 21 14 55 -2 46 -2 46 59 86 34
23 65 41 70 41 12 0 18 24 13 51 -3 17 -15 29 -36 37 -43 16 -67 67 -67 142 0
33 -4 60 -9 60 -5 0 -14 13 -21 30 -9 22 -21 31 -46 36 -38 7 -134 -15 -134
-31 0 -6 -15 -19 -34 -29 -32 -17 -36 -17 -51 -2 -9 9 -23 16 -30 16 -8 0 -18
6 -22 13 -4 7 -21 18 -38 25 -33 12 -183 12 -239 -1z"/>
<path d="M11498 14225 c-8 -19 -7 -27 6 -40 9 -9 16 -14 16 -12 0 10 102 -22
119 -36 9 -8 34 -20 56 -27 22 -7 50 -19 62 -27 18 -12 25 -12 42 -1 12 7 21
16 21 20 0 12 -50 58 -64 58 -23 0 -119 31 -161 52 -78 39 -84 40 -97 13z"/>
<path d="M16315 11868 c-39 -109 -165 -481 -163 -483 11 -6 862 -265 864 -262
3 3 174 497 174 503 0 5 -141 47 -144 43 -1 -2 -30 -85 -64 -183 -34 -99 -64
-181 -66 -183 -2 -2 -56 12 -119 32 l-116 37 58 168 59 169 -70 21 c-58 17
-72 19 -79 8 -5 -7 -32 -82 -60 -165 -29 -84 -55 -153 -58 -153 -26 -1 -181
56 -181 66 0 7 27 90 59 183 l59 171 -67 20 c-80 24 -80 24 -86 8z"/>
<path d="M3393 11737 c-226 -62 -415 -115 -418 -119 -7 -7 66 -257 105 -361
12 -31 35 -69 52 -86 119 -116 394 -50 425 102 3 15 8 26 12 24 78 -43 161
-53 235 -28 44 15 111 72 132 112 27 53 17 110 -62 371 -24 82 -32 98 -49 97
-11 0 -205 -51 -432 -112z m366 -124 c42 -145 42 -145 23 -177 -12 -21 -31
-34 -62 -44 -55 -17 -92 -5 -118 37 -20 33 -67 189 -60 197 6 5 166 52 185 53
7 1 21 -29 32 -66z m-333 -152 c22 -88 24 -106 14 -132 -28 -66 -159 -92 -202
-39 -17 21 -78 196 -78 224 0 19 222 77 232 61 4 -7 19 -58 34 -114z"/>
<path d="M3627 11116 c-220 -84 -406 -157 -415 -162 -16 -11 -10 -27 157 -417
l20 -47 68 25 c37 14 68 27 70 28 1 2 -28 76 -67 166 l-69 163 32 12 c18 8
173 67 345 132 185 70 312 123 312 131 0 13 -47 124 -52 122 -2 -1 -182 -69
-401 -153z"/>
<path d="M16160 11249 c-33 -13 -67 -46 -95 -89 -37 -60 -166 -353 -158 -360
8 -7 786 -320 814 -327 12 -4 24 11 43 52 14 32 26 61 26 64 0 4 -76 38 -170
75 -93 38 -170 74 -170 80 0 19 38 74 62 90 21 14 156 34 345 51 l73 7 21 47
c12 25 27 60 35 78 l13 31 -62 -4 c-245 -18 -317 -29 -388 -58 -14 -6 -16 1
-17 47 0 30 -7 68 -16 85 -23 44 -92 99 -153 122 -58 22 -160 26 -203 9z m176
-159 c77 -38 78 -73 8 -228 l-33 -72 -50 20 c-28 11 -75 29 -103 41 -29 11
-55 22 -57 24 -8 8 98 214 115 224 29 16 74 13 120 -9z"/>
<path d="M3871 10600 c-217 -104 -396 -192 -398 -194 -3 -3 43 -95 101 -205
123 -231 146 -271 154 -271 4 1 34 15 68 33 l61 32 -94 174 c-51 96 -92 175
-91 177 2 1 51 25 110 52 l107 50 19 -31 c11 -18 47 -85 81 -149 34 -65 66
-120 72 -123 12 -8 129 45 129 58 0 6 -36 78 -81 160 -44 82 -79 150 -77 152
2 1 41 22 87 45 77 38 86 41 97 25 7 -9 49 -86 94 -170 l81 -154 65 32 c35 17
64 36 64 42 -1 16 -236 449 -246 452 -5 1 -186 -83 -403 -187z"/>
<path d="M15707 10488 l-37 -63 193 -195 c106 -107 251 -255 322 -327 71 -73
132 -133 136 -133 4 0 23 28 43 62 l37 61 -74 76 -75 76 67 113 c38 62 72 117
77 122 5 5 48 1 104 -11 52 -11 99 -18 105 -15 7 2 28 31 48 65 31 52 33 61
19 65 -26 8 -898 166 -914 166 -7 0 -30 -28 -51 -62z m383 -139 c79 -16 145
-31 146 -32 3 -2 -84 -148 -95 -159 -4 -4 -61 47 -126 113 -88 88 -113 119
-95 114 14 -3 90 -19 170 -36z"/>
<path d="M4535 10275 c-11 -7 -177 -109 -370 -226 -192 -116 -354 -215 -358
-219 -10 -9 53 -110 68 -110 6 0 116 65 245 144 129 79 237 143 239 141 2 -2
-69 -121 -158 -264 -88 -143 -161 -263 -161 -266 0 -11 73 -115 81 -115 9 0
729 437 746 454 10 9 5 23 -23 64 l-35 53 -42 -25 c-23 -13 -134 -80 -247
-149 -113 -69 -207 -124 -209 -122 -3 3 164 277 318 520 12 18 9 27 -25 77
-22 32 -41 57 -44 57 -3 0 -14 -6 -25 -14z"/>
<path d="M15462 10069 c-70 -35 -105 -71 -140 -147 -78 -172 50 -381 315 -516
116 -58 258 -73 357 -36 136 52 218 212 174 341 -11 33 -48 91 -88 138 l-20
23 -66 -42 -65 -43 29 -31 c82 -86 82 -179 0 -238 -27 -18 -46 -23 -99 -23
-55 0 -77 6 -140 37 -96 48 -196 124 -234 178 -41 59 -42 131 -3 182 35 46 83
62 159 55 l57 -7 21 62 c11 33 18 64 16 68 -8 13 -93 30 -153 30 -46 0 -73 -7
-120 -31z"/>
<path d="M4570 9515 c-190 -144 -345 -267 -345 -273 0 -22 216 -262 258 -286
135 -79 308 -38 503 118 177 143 239 296 170 422 -27 49 -221 285 -234 283 -4
0 -162 -119 -352 -264z m383 5 c96 -118 96 -171 -1 -273 -60 -63 -194 -157
-251 -176 -50 -16 -102 -13 -135 8 -40 27 -139 142 -129 151 22 21 458 350
463 349 3 0 26 -27 53 -59z"/>
<path d="M14872 9401 c-23 -27 -42 -52 -42 -55 0 -3 56 -53 125 -111 69 -59
125 -109 125 -112 0 -9 -173 -195 -186 -200 -7 -3 -71 45 -141 106 l-128 110
-53 -52 -52 -52 42 -35 c23 -19 175 -149 338 -287 l295 -252 52 51 51 51 -144
124 c-80 69 -144 128 -142 133 2 4 45 51 96 105 83 87 94 96 109 84 10 -8 77
-64 149 -126 l131 -112 52 53 51 52 -331 283 c-182 155 -336 284 -343 287 -7
3 -31 -18 -54 -45z"/>
<path d="M5063 9012 c-161 -147 -305 -279 -320 -295 l-28 -27 50 -50 50 -50
328 297 327 297 -47 48 c-26 26 -52 48 -58 47 -5 0 -142 -121 -302 -267z"/>
<path d="M5237 8822 c-169 -169 -307 -312 -307 -318 0 -6 22 -29 49 -52 l48
-41 198 200 c109 110 199 198 200 197 1 -2 -39 -135 -89 -297 l-91 -294 55
-49 54 -49 314 313 313 313 -53 48 -53 48 -202 -208 c-111 -114 -203 -206
-206 -203 -2 3 39 139 90 304 l94 298 -28 30 c-15 16 -40 38 -54 48 l-25 19
-307 -307z"/>
<path d="M14439 8992 c-30 -26 -129 -109 -218 -186 l-163 -138 48 -49 c27 -27
52 -49 57 -49 5 0 43 29 85 66 l77 65 100 -103 c56 -57 170 -176 255 -266
l155 -163 55 49 54 49 -252 264 -252 264 28 25 c15 14 52 46 82 72 l55 47 -50
50 c-27 28 -52 51 -55 51 -3 0 -30 -22 -61 -48z"/>
<path d="M6020 8606 c-121 -27 -247 -123 -330 -251 -62 -95 -84 -165 -84 -265
-1 -75 3 -91 29 -138 33 -60 95 -121 154 -151 98 -50 269 -69 309 -33 33 28
203 262 198 270 -3 5 -62 46 -131 92 -120 79 -126 82 -140 64 -7 -10 -27 -37
-43 -59 l-30 -39 66 -45 c37 -24 68 -45 70 -46 2 -2 -12 -24 -30 -50 l-33 -47
-68 5 c-177 12 -246 147 -161 316 40 81 118 171 178 206 79 46 173 42 236 -11
49 -42 63 -78 56 -143 l-6 -56 66 -24 c74 -26 76 -25 94 39 40 139 -31 268
-185 340 -73 35 -142 43 -215 26z"/>
<path d="M13925 8575 c-28 -20 -51 -40 -53 -45 -2 -6 66 -96 150 -202 85 -106
205 -257 267 -335 62 -79 118 -143 124 -143 7 0 35 18 64 38 l52 38 -210 265
c-116 145 -238 299 -271 342 -33 42 -63 77 -67 77 -3 0 -29 -16 -56 -35z"/>
<path d="M13764 8453 l-61 -36 95 -236 c52 -130 103 -258 114 -286 18 -48 9
-40 -201 175 l-219 225 -76 -40 c-42 -22 -76 -43 -76 -46 0 -4 43 -128 95
-275 53 -147 94 -271 93 -275 -2 -6 -187 189 -369 391 l-37 40 -65 -38 -66
-38 310 -326 310 -326 70 40 c38 22 69 41 69 42 0 1 -30 85 -66 187 -36 101
-86 240 -110 309 l-45 125 240 -239 239 -239 66 37 c36 20 66 41 66 45 0 13
-301 805 -308 813 -4 3 -34 -10 -68 -29z"/>
<path d="M6837 8098 c-143 -259 -378 -700 -376 -702 12 -11 110 -56 121 -56 7
0 40 50 73 111 l60 112 88 38 c48 20 87 34 88 31 3 -28 -3 -383 -7 -407 -5
-29 -3 -31 81 -72 47 -24 87 -43 89 -43 2 0 1 134 -1 298 l-5 297 201 85 c110
47 201 88 201 91 0 3 -39 24 -86 46 l-86 40 -224 -103 c-123 -56 -224 -100
-224 -96 0 3 38 76 85 163 47 86 85 159 85 163 0 5 -114 66 -124 66 -2 0 -20
-28 -39 -62z"/>
<path d="M12435 7792 c-132 -52 -241 -96 -243 -97 -2 -2 346 -786 352 -792 1
-2 110 41 242 93 131 53 249 100 261 105 l22 8 -26 58 c-14 32 -29 61 -32 65
-4 4 -92 -26 -196 -67 -104 -41 -190 -75 -191 -75 -4 0 -95 212 -92 215 1 2
79 33 171 70 101 41 166 72 163 79 -38 93 -50 116 -58 116 -4 0 -83 -29 -175
-65 -91 -36 -167 -64 -168 -63 -7 8 -75 171 -73 173 2 2 84 36 183 75 99 39
181 73 182 74 2 1 -9 30 -24 64 -17 38 -33 62 -43 61 -8 -1 -123 -44 -255 -97z"/>
<path d="M7465 7871 c-10 -17 -315 -763 -318 -779 -1 -9 21 -22 61 -38 l63
-23 9 24 c22 57 192 470 199 482 4 8 20 -109 35 -259 40 -386 28 -346 109
-375 38 -13 70 -23 71 -21 7 8 321 784 321 791 0 5 -28 20 -62 32 l-61 23 -77
-185 c-42 -102 -90 -221 -107 -264 -17 -44 -33 -78 -35 -75 -2 2 -17 135 -34
297 -16 162 -32 303 -34 314 -3 14 -21 26 -57 39 -29 10 -58 21 -64 23 -7 2
-15 0 -19 -6z"/>
<path d="M11826 7624 c-215 -66 -294 -280 -201 -547 88 -255 304 -372 527
-286 66 25 158 96 200 155 l30 41 -52 164 c-29 90 -53 165 -54 166 -4 4 -291
-79 -299 -87 -4 -4 0 -35 9 -68 20 -71 19 -71 118 -42 38 11 71 19 72 17 1 -1
9 -26 18 -55 l15 -53 -44 -44 c-125 -125 -283 -91 -368 80 -59 118 -73 243
-38 322 53 115 234 138 307 38 l19 -25 59 33 c33 18 61 38 63 43 5 15 -55 88
-97 119 -19 14 -50 30 -70 35 -51 14 -157 11 -214 -6z"/>
<path d="M8199 7597 c-126 -47 -214 -157 -270 -337 -30 -97 -33 -240 -6 -317
26 -74 92 -143 169 -179 55 -25 75 -28 158 -29 84 0 101 3 146 27 147 77 257
289 257 493 0 151 -58 254 -176 314 -59 30 -79 35 -155 38 -56 2 -100 -2 -123
-10z m226 -171 c75 -58 93 -154 54 -297 -41 -153 -118 -238 -222 -247 -57 -4
-114 17 -149 55 -54 59 -63 175 -23 302 50 157 125 226 241 219 49 -3 69 -10
99 -32z"/>
<path d="M8725 7083 c4 -236 8 -433 10 -439 3 -10 106 -34 147 -34 10 0 56 94
143 295 71 162 131 293 133 290 2 -2 10 -143 17 -314 8 -171 16 -314 19 -319
3 -5 25 -12 48 -15 24 -4 57 -9 73 -12 l31 -7 164 398 165 398 3 -402 2 -402
265 0 265 0 0 70 0 70 -187 2 -188 3 -3 353 -2 352 -74 0 c-47 0 -76 -4 -78
-12 -3 -8 -21 -8 -71 2 -38 7 -69 11 -71 9 -2 -2 -52 -130 -112 -283 l-109
-279 -6 104 c-4 57 -7 174 -9 259 -1 85 -5 175 -8 200 l-7 45 -70 12 c-38 6
-77 12 -85 12 -11 1 -52 -84 -135 -274 l-120 -275 -5 297 -5 297 -65 12 c-36
7 -69 13 -73 13 -5 1 -5 -191 -2 -426z"/>
<path d="M11175 7456 c-5 -2 -78 -16 -162 -32 -84 -15 -157 -30 -162 -33 -8
-6 168 -823 180 -836 7 -7 288 50 353 72 68 22 137 92 162 164 26 75 24 217
-5 324 -43 159 -106 258 -198 308 -45 24 -141 43 -168 33z m92 -167 c57 -28
95 -94 124 -214 36 -156 25 -262 -34 -299 -21 -14 -106 -38 -178 -50 l-36 -6
-58 262 c-32 145 -60 270 -62 279 -4 12 8 18 54 27 32 7 67 13 78 16 44 9 71
5 112 -15z"/>
<path d="M10467 7385 c-120 -12 -220 -25 -223 -27 -6 -6 84 -840 92 -847 4 -4
555 46 559 52 4 5 -13 128 -19 134 -4 4 -282 -17 -396 -30 -11 -2 -17 23 -27
112 -7 63 -12 115 -10 117 1 1 85 10 186 20 l184 17 -7 71 c-4 38 -8 71 -9 72
-1 1 -85 -6 -187 -16 -102 -10 -185 -18 -186 -17 -1 1 -6 44 -11 94 l-9 93 31
5 c26 4 342 35 359 35 8 0 8 68 0 109 -6 30 -8 31 -58 30 -28 -1 -149 -12
-269 -24z"/>
<path d="M15803 22043 c-106 -136 -644 -855 -648 -865 -4 -11 75 -77 130 -110
8 -5 62 58 155 182 78 105 145 190 148 190 3 0 74 -52 158 -115 l154 -115 55
73 c30 41 55 76 55 79 0 3 -67 56 -150 118 -82 62 -150 117 -150 122 0 11 150
208 158 208 3 0 83 -58 178 -130 94 -71 176 -130 180 -130 8 1 83 96 106 135
5 9 -73 74 -235 195 -133 101 -247 187 -253 192 -8 6 -22 -4 -41 -29z"/>
<path d="M4155 21937 c-72 -24 -128 -59 -185 -113 -179 -170 -167 -422 32
-692 239 -325 563 -386 786 -148 67 72 97 136 107 232 27 241 -220 609 -474
705 -70 27 -208 35 -266 16z m223 -208 c53 -22 159 -123 218 -205 120 -168
135 -309 43 -409 -73 -79 -179 -96 -283 -46 -61 30 -155 117 -212 197 -118
166 -135 308 -47 405 77 85 172 105 281 58z"/>
<path d="M3373 21309 c-54 -51 -97 -95 -96 -98 1 -3 90 -154 198 -335 107
-181 194 -330 192 -332 -2 -2 -146 96 -320 217 -210 145 -322 217 -331 212 -7
-4 -55 -47 -105 -95 l-93 -87 388 -415 c308 -330 390 -413 403 -406 9 5 38 31
65 59 l49 50 -259 277 c-269 288 -349 377 -324 358 113 -83 712 -504 718 -504
4 0 36 26 71 58 l65 58 -228 374 c-126 206 -230 378 -233 383 -15 26 35 -27
297 -308 161 -173 295 -315 297 -315 9 0 123 105 123 113 0 10 -762 827 -772
827 -3 0 -51 -41 -105 -91z"/>
<path d="M16670 20923 c-140 -135 -323 -313 -406 -394 l-152 -147 58 -63 58
-64 54 51 c29 28 147 141 262 252 116 111 211 200 213 198 2 -2 -55 -172 -127
-379 -71 -206 -130 -381 -130 -389 0 -7 28 -41 63 -75 l62 -62 50 46 c28 25
172 164 320 307 149 144 311 301 360 348 l90 87 -60 61 c-33 33 -63 59 -66 58
-4 -2 -125 -117 -269 -256 -144 -140 -263 -252 -265 -250 -2 2 57 176 130 387
74 211 135 389 135 396 0 14 -107 135 -119 135 -3 0 -121 -111 -261 -247z"/>
<path d="M2370 20249 c-176 -226 -210 -274 -198 -285 7 -7 208 -166 447 -352
l434 -339 22 26 c12 14 110 140 219 279 l197 253 -23 19 c-13 10 -46 36 -75
59 l-51 41 -157 -200 c-86 -110 -160 -202 -163 -204 -8 -5 -235 168 -240 182
-1 5 60 90 137 188 77 99 140 181 140 184 0 10 -140 111 -148 108 -5 -2 -69
-79 -141 -173 -73 -93 -136 -174 -141 -179 -7 -8 -206 140 -202 150 1 3 70 93
154 200 83 108 148 199 143 203 -11 9 -104 82 -125 99 -15 11 -43 -22 -229
-259z"/>
<path d="M17375 20197 c-295 -240 -420 -359 -455 -431 -47 -99 -36 -212 29
-313 127 -195 288 -254 456 -167 74 39 161 104 450 337 143 116 262 212 263
213 5 4 -109 144 -117 144 -3 0 -103 -79 -221 -175 -281 -228 -407 -324 -450
-342 -145 -62 -288 121 -206 262 27 45 81 92 449 389 172 139 195 161 184 175
-7 9 -32 40 -56 69 -24 28 -48 52 -54 51 -7 0 -129 -96 -272 -212z"/>
<path d="M1891 19614 l-74 -116 279 -279 c153 -153 276 -279 271 -279 -4 0
-163 59 -354 131 -192 73 -356 134 -365 136 -24 7 -177 -226 -157 -238 8 -4
223 -143 478 -309 255 -165 466 -298 469 -295 4 3 25 36 48 73 l42 66 -46 31
c-26 18 -188 123 -360 235 -172 111 -311 204 -309 206 2 2 176 -64 388 -147
211 -83 394 -155 406 -160 20 -8 28 0 74 67 l51 76 -324 319 c-248 246 -310
312 -268 286 30 -19 198 -127 373 -241 176 -114 320 -206 322 -204 28 33 85
142 79 148 -16 15 -934 610 -942 610 -4 0 -40 -52 -81 -116z"/>
<path d="M17806 19250 c-253 -165 -464 -304 -469 -309 -7 -7 6 -35 40 -86 l50
-76 199 130 199 130 28 -46 c57 -91 51 -117 -97 -393 l-96 -179 57 -90 c32
-50 61 -91 64 -91 6 0 153 257 192 335 27 56 42 102 52 159 l6 38 22 -20 c50
-46 109 -67 187 -67 65 0 85 5 140 32 76 37 138 93 177 160 40 68 40 164 -1
243 -44 85 -270 430 -281 429 -5 0 -217 -135 -469 -299z m497 -82 c83 -130 92
-164 61 -218 -27 -44 -91 -80 -145 -80 -42 0 -50 4 -84 41 -47 52 -157 220
-150 228 14 14 221 150 230 150 6 1 45 -54 88 -121z"/>
<path d="M18647 18560 c-93 -23 -192 -100 -233 -181 -37 -73 -40 -136 -14
-305 14 -88 20 -161 16 -178 -10 -39 -60 -84 -101 -92 -102 -19 -204 78 -205
193 0 60 15 91 70 148 l49 50 -47 72 c-26 40 -52 72 -58 73 -22 0 -159 -138
-182 -183 -49 -98 -45 -203 11 -322 48 -101 121 -178 196 -206 85 -32 193 -24
285 21 134 66 206 171 206 299 0 33 -9 120 -20 194 -25 165 -18 201 43 231 34
16 42 17 75 4 43 -16 97 -83 112 -138 15 -57 -1 -110 -47 -151 l-37 -32 33
-61 c53 -99 56 -102 87 -85 43 22 110 93 136 140 19 37 23 59 23 134 0 83 -3
96 -36 165 -47 96 -96 152 -162 184 -59 28 -144 39 -200 26z"/>
<path d="M1864 17784 c-25 -53 -44 -98 -42 -100 16 -15 243 -113 246 -105 2 5
21 46 43 91 21 45 39 87 39 94 0 11 -212 116 -233 116 -5 0 -29 -43 -53 -96z"/>
<path d="M18715 17574 c-280 -114 -514 -210 -519 -214 -9 -9 51 -170 63 -170
9 0 1041 417 1047 422 7 8 -61 168 -71 168 -5 -1 -239 -93 -520 -206z"/>
<path d="M957 17634 c-68 -21 -126 -82 -161 -169 -53 -131 -155 -434 -148
-439 31 -19 1066 -366 1072 -360 4 5 45 121 90 257 90 274 97 321 62 401 -46
104 -171 185 -298 194 -84 5 -128 -7 -187 -52 l-43 -33 -18 44 c-27 64 -104
128 -183 153 -76 23 -120 24 -186 4z m195 -200 c39 -20 58 -53 58 -99 0 -37
-63 -250 -80 -268 -6 -6 -235 65 -247 77 -4 3 80 235 96 265 26 48 105 60 173
25z m451 -118 c48 -20 87 -70 87 -112 0 -35 -75 -281 -91 -298 -6 -7 -269 75
-287 89 -4 3 69 207 90 250 30 61 64 85 121 85 26 0 62 -6 80 -14z"/>
<path d="M18843 17207 c-287 -106 -524 -195 -527 -198 -6 -5 41 -137 53 -151
6 -6 282 90 641 223 l55 21 -25 -28 c-22 -25 -421 -454 -508 -546 l-35 -36 27
-74 c15 -40 31 -80 35 -87 7 -11 118 26 540 179 292 107 531 198 530 204 0 6
-13 43 -28 81 -18 46 -33 69 -42 67 -8 -2 -167 -59 -354 -127 -187 -68 -340
-123 -341 -122 -1 1 71 79 160 173 88 94 219 232 290 307 l129 137 -30 82
c-17 45 -34 83 -39 84 -5 1 -244 -84 -531 -189z"/>
<path d="M1377 16435 c-15 -52 -27 -101 -27 -108 0 -9 42 -26 118 -47 64 -18
122 -34 127 -37 10 -3 72 203 64 211 -4 4 -244 76 -252 76 -2 0 -15 -43 -30
-95z"/>
<path d="M19150 16251 c-101 -22 -206 -62 -275 -106 -70 -45 -151 -135 -183
-202 -25 -53 -27 -69 -27 -178 l0 -120 41 -86 c28 -57 62 -107 102 -150 94
-101 76 -98 329 -49 120 23 219 43 220 44 1 1 -15 89 -36 196 -28 143 -42 195
-52 195 -8 0 -49 -6 -91 -14 -89 -16 -87 -12 -63 -121 23 -105 22 -107 -35
-119 -80 -17 -94 -14 -139 31 -141 143 -113 330 66 426 119 63 317 97 421 73
118 -29 190 -110 199 -224 8 -90 -21 -141 -114 -207 l-21 -15 33 -75 c19 -41
36 -79 38 -85 6 -14 105 37 154 79 155 135 146 437 -18 594 -120 116 -330 159
-549 113z"/>
<path d="M562 16205 c-91 -28 -136 -75 -171 -177 -21 -63 -107 -495 -100 -502
6 -6 1077 -216 1100 -216 11 0 20 24 32 87 9 48 16 88 14 89 -1 1 -105 23
-230 47 -126 25 -230 47 -232 49 -7 6 21 101 36 126 20 33 110 73 314 137 99
32 184 61 189 65 8 8 45 169 46 201 0 14 -16 12 -117 -17 -216 -62 -328 -104
-381 -144 l-50 -38 -7 46 c-9 65 -36 121 -75 160 -84 84 -251 124 -368 87z
m202 -199 c48 -20 76 -61 76 -110 0 -22 -10 -94 -22 -158 -19 -106 -24 -118
-42 -118 -29 1 -255 46 -261 52 -9 9 46 262 64 293 9 16 28 36 42 42 32 17
102 16 143 -1z"/>
<path d="M184 15392 c-32 -21 -37 -55 -30 -206 21 -473 58 -716 132 -873 55
-116 129 -177 370 -301 110 -57 224 -117 254 -134 l56 -31 149 97 c169 111
226 161 260 226 44 86 50 145 49 443 -2 237 -4 281 -18 302 -31 47 -44 37
-118 -90 -23 -38 -71 -110 -108 -160 -151 -204 -175 -246 -206 -350 l-17 -60
-19 92 c-38 191 -118 351 -249 499 -30 33 -108 121 -174 195 -131 145 -203
236 -228 286 -17 33 -62 73 -81 73 -6 0 -16 -4 -22 -8z"/>
<path d="M19736 15379 c-15 -11 -35 -37 -46 -57 -25 -50 -131 -180 -260 -321
-271 -296 -340 -412 -389 -655 l-18 -90 -21 70 c-27 87 -76 171 -188 321 -49
65 -109 154 -134 197 -53 92 -72 109 -97 84 -34 -34 -43 -521 -13 -658 30
-131 76 -183 295 -326 l149 -97 56 31 c30 18 144 78 253 133 162 83 210 114
266 165 149 138 202 348 232 920 12 228 10 261 -17 288 -21 21 -36 20 -68 -5z"/>
<path d="M36 14274 c-21 -21 -30 -58 -23 -102 28 -192 85 -497 117 -627 81
-328 159 -465 322 -559 39 -23 271 -117 539 -219 66 -25 39 -39 235 126 215
180 238 223 237 437 -1 74 -8 185 -17 245 -47 337 -56 369 -99 363 -12 -2 -27
-14 -33 -28 -6 -14 -26 -56 -44 -95 -17 -38 -74 -145 -127 -237 -94 -167 -135
-263 -149 -353 l-7 -48 -34 104 c-61 186 -161 342 -302 469 -42 37 -146 131
-233 209 -86 77 -180 168 -210 202 -118 137 -137 149 -172 113z"/>
<path d="M19846 14244 c-82 -95 -255 -263 -414 -403 -240 -209 -338 -346 -407
-564 l-31 -99 -13 68 c-17 93 -49 168 -140 324 -68 115 -99 176 -175 340 -16
34 -51 38 -70 8 -9 -13 -20 -53 -25 -88 -5 -36 -16 -110 -25 -165 -27 -181
-39 -354 -28 -432 20 -141 57 -193 256 -357 54 -44 111 -91 125 -103 14 -12
32 -22 40 -23 8 0 50 16 95 35 45 19 160 64 256 100 253 95 322 137 395 240
103 144 166 357 246 829 17 100 33 204 35 231 6 63 -11 99 -50 103 -23 3 -36
-5 -70 -44z"/>
<path d="M88 13043 c-34 -40 -34 -46 36 -354 157 -700 269 -908 546 -1017 30
-11 141 -48 245 -81 105 -33 220 -71 258 -85 37 -14 70 -26 73 -26 3 0 81 72
174 161 209 198 230 233 238 387 5 114 -12 244 -69 517 -41 200 -56 234 -97
221 -11 -4 -25 -21 -32 -39 -40 -111 -63 -161 -147 -332 -98 -199 -136 -300
-148 -400 l-8 -60 -23 70 c-32 91 -95 214 -152 295 -70 98 -167 188 -397 370
-116 91 -255 210 -311 266 -127 129 -154 144 -186 107z"/>
<path d="M19825 13048 c-11 -7 -60 -53 -110 -104 -49 -50 -191 -172 -315 -270
-124 -98 -255 -209 -292 -246 -115 -116 -190 -236 -251 -399 l-35 -93 -7 60
c-13 100 -43 181 -144 389 -88 179 -109 227 -151 342 -7 18 -21 35 -32 39 -42
13 -56 -20 -102 -246 -105 -509 -92 -624 86 -795 46 -44 123 -118 171 -163 48
-46 93 -82 100 -79 50 18 308 104 427 142 266 86 369 160 459 334 90 173 194
535 281 973 18 92 -25 151 -85 116z"/>
<path d="M218 11713 c-42 -48 -36 -75 90 -403 231 -604 357 -810 554 -907 85
-42 136 -55 408 -103 124 -21 252 -46 285 -55 92 -23 98 -22 146 43 24 31 80
101 125 154 157 185 180 233 178 378 -1 105 -23 213 -78 380 -62 192 -133 381
-151 400 -40 45 -76 10 -89 -84 -3 -27 -42 -157 -87 -290 -87 -260 -109 -351
-109 -454 l0 -67 -53 93 c-145 255 -258 356 -677 602 -196 115 -344 214 -408
272 -63 58 -107 71 -134 41z"/>
<path d="M19685 11714 c-16 -8 -46 -30 -65 -48 -54 -51 -205 -151 -425 -281
-284 -168 -338 -206 -446 -314 -93 -93 -158 -181 -226 -306 l-33 -60 0 65 c-1
108 -24 203 -109 456 -45 133 -84 263 -87 290 -13 94 -49 129 -89 84 -20 -22
-131 -325 -175 -478 -80 -278 -77 -408 12 -539 15 -23 69 -91 120 -150 50 -59
107 -129 126 -155 39 -55 42 -56 156 -29 44 11 178 36 296 56 306 52 393 84
504 186 93 85 196 255 301 499 49 111 224 575 235 620 10 40 4 78 -18 103 -19
21 -38 22 -77 1z"/>
<path d="M696 10305 c-24 -24 -29 -76 -13 -120 15 -39 112 -265 197 -455 100
-226 234 -466 322 -577 88 -112 174 -176 293 -219 78 -28 136 -39 360 -64 99
-11 238 -30 310 -42 l130 -21 17 24 c9 13 72 98 138 189 160 216 182 260 188
371 8 151 -36 307 -193 682 -81 195 -102 226 -144 212 -23 -7 -33 -39 -51
-160 -7 -44 -37 -165 -67 -270 -73 -254 -84 -310 -84 -439 l0 -110 -21 34
c-124 204 -250 343 -401 443 -48 32 -204 119 -345 194 -266 139 -439 240 -482
281 -32 30 -93 62 -119 62 -11 0 -26 -7 -35 -15z"/>
<path d="M19198 10304 c-15 -8 -56 -36 -90 -62 -76 -57 -233 -148 -463 -267
-317 -164 -392 -213 -524 -344 -75 -75 -148 -172 -219 -291 l-21 -35 0 106 c0
128 -10 187 -62 366 -58 198 -88 320 -95 383 -8 79 -22 118 -45 125 -42 14
-63 -18 -144 -212 -157 -375 -201 -531 -193 -682 6 -111 28 -155 188 -371 66
-91 129 -176 138 -189 l17 -23 130 21 c72 11 211 30 310 41 282 32 362 51 470
114 181 107 337 356 600 961 112 256 118 273 110 312 -11 60 -51 78 -107 47z"/>
<path d="M3192 8870 c-6 -11 -12 -46 -12 -77 0 -72 -20 -203 -65 -436 -42
-215 -52 -334 -36 -436 6 -40 10 -75 8 -77 -2 -2 -28 31 -58 73 -29 42 -88
111 -129 153 -151 156 -300 245 -650 388 -339 139 -484 207 -573 268 -27 18
-66 39 -88 45 -92 28 -120 -61 -56 -183 481 -907 680 -1151 990 -1213 50 -10
184 -19 365 -25 158 -5 326 -13 373 -16 l86 -7 33 59 c19 33 74 124 123 204
102 165 130 221 146 302 16 74 2 177 -41 306 -39 118 -299 638 -334 670 -31
27 -65 28 -82 2z"/>
<path d="M16706 8868 c-35 -32 -295 -552 -334 -670 -43 -128 -57 -232 -42
-305 18 -83 41 -131 149 -308 54 -88 111 -182 126 -209 l27 -49 87 7 c47 3
214 11 370 16 330 11 408 23 531 83 215 104 434 410 827 1155 40 76 45 140 13
172 -11 11 -28 20 -37 20 -25 -1 -102 -36 -141 -67 -49 -37 -266 -138 -522
-243 -124 -51 -274 -117 -333 -147 -193 -98 -344 -227 -472 -401 -33 -44 -61
-79 -63 -78 -1 2 3 37 9 77 16 102 7 213 -35 431 -47 244 -66 369 -66 444 0
89 -40 120 -94 72z"/>
<path d="M4303 7650 c-25 -10 -41 -68 -27 -97 5 -10 11 -202 14 -428 6 -404 7
-411 32 -490 14 -44 29 -89 33 -100 5 -11 -34 21 -87 71 -155 148 -303 243
-478 307 -115 42 -187 61 -480 127 -278 63 -484 121 -574 163 -91 41 -159 44
-188 6 -26 -34 -17 -85 26 -145 64 -91 404 -512 507 -628 247 -280 433 -424
609 -472 100 -28 272 -23 525 15 116 17 273 37 350 45 148 16 158 20 172 76 3
14 41 112 85 218 43 106 85 220 93 255 55 234 -21 389 -495 1005 -44 57 -87
83 -117 72z"/>
<path d="M15608 7631 c-13 -11 -85 -100 -159 -198 -356 -469 -438 -653 -384
-862 8 -31 50 -144 93 -251 43 -107 82 -206 85 -220 14 -56 24 -60 172 -76 77
-8 232 -27 345 -44 278 -40 352 -45 448 -31 283 42 508 237 1023 889 187 236
205 263 214 308 5 29 2 43 -13 63 -27 37 -76 39 -154 6 -150 -63 -319 -110
-738 -205 -102 -23 -221 -53 -264 -67 -215 -68 -394 -174 -557 -330 -54 -53
-99 -94 -99 -92 0 2 9 28 20 58 43 113 50 186 50 557 0 211 4 372 11 405 14
72 1 109 -39 109 -16 0 -40 -9 -54 -19z"/>
<path d="M5410 6642 c-36 -12 -40 -72 -11 -131 26 -50 70 -220 121 -461 57
-275 101 -400 181 -517 16 -23 29 -44 29 -48 0 -3 -19 7 -42 23 -175 120 -427
215 -638 242 -47 6 -305 12 -575 14 -304 3 -509 9 -540 15 -27 7 -81 14 -120
17 -62 5 -73 4 -97 -16 -57 -44 -23 -136 76 -207 28 -21 107 -83 176 -138 337
-273 622 -474 810 -569 176 -89 274 -117 416 -117 144 0 223 23 593 170 112
45 229 89 260 97 70 20 154 55 162 67 4 6 10 40 14 76 3 36 20 152 37 256 39
251 37 359 -9 457 -45 96 -85 150 -188 257 -101 105 -387 352 -561 484 -28 22
-73 36 -94 29z"/>
<path d="M14516 6635 c-21 -8 -55 -29 -75 -47 -20 -19 -70 -61 -111 -93 -231
-181 -467 -404 -540 -510 -17 -25 -45 -76 -63 -113 -46 -98 -48 -206 -9 -457
17 -104 34 -220 37 -256 4 -36 10 -70 14 -75 9 -14 53 -32 166 -69 55 -18 190
-69 300 -113 317 -126 379 -144 521 -150 156 -6 241 15 419 103 204 100 438
262 806 557 85 68 178 141 207 162 101 73 132 161 75 206 -25 20 -36 21 -98
16 -38 -3 -92 -10 -120 -17 -31 -6 -235 -12 -535 -15 -267 -2 -525 -9 -575
-15 -216 -26 -430 -104 -617 -225 -38 -24 -68 -42 -68 -39 0 2 12 21 26 42 84
123 126 245 193 563 52 244 87 375 116 429 9 19 15 49 13 73 -4 50 -26 62 -82
43z"/>
<path d="M7016 5794 c-23 -22 -20 -54 9 -105 55 -97 120 -244 190 -429 94
-249 127 -327 161 -387 35 -60 96 -144 143 -196 l35 -39 -39 17 c-318 136
-570 178 -873 144 -53 -6 -214 -30 -357 -54 -373 -63 -479 -75 -670 -81 -165
-6 -191 -10 -227 -42 -41 -36 -4 -126 69 -171 41 -24 260 -149 463 -264 178
-100 497 -259 617 -306 205 -81 388 -119 516 -107 164 15 257 55 617 266 135
79 274 156 309 172 35 16 81 41 103 56 l40 26 -4 325 c-5 349 -8 373 -63 481
-57 112 -175 221 -405 374 -140 94 -406 254 -519 313 -52 27 -93 29 -115 7z"/>
<path d="M12874 5800 c-45 -18 -395 -227 -531 -316 -237 -156 -362 -272 -421
-389 -52 -104 -55 -130 -60 -476 l-4 -326 49 -31 c26 -17 73 -41 103 -55 30
-13 163 -87 295 -164 357 -209 434 -243 588 -265 274 -39 658 110 1402 544 72
41 153 87 180 101 57 29 123 90 131 123 10 40 -1 68 -35 91 -30 20 -46 23
-143 23 -155 0 -359 23 -703 80 -357 59 -446 70 -585 70 -216 0 -419 -47 -674
-155 l-39 -16 50 58 c113 131 156 213 273 523 91 241 155 386 198 454 37 58
42 110 13 126 -23 12 -58 12 -87 0z"/>
<path d="M8514 5207 c-36 -32 -28 -61 37 -133 75 -83 170 -216 322 -449 162
-249 246 -351 361 -436 46 -35 84 -64 83 -65 -1 -1 -47 7 -101 17 -225 44
-479 41 -691 -6 -138 -31 -237 -66 -585 -205 -312 -124 -583 -216 -679 -230
-85 -12 -132 -30 -166 -64 -68 -68 2 -156 160 -201 50 -14 398 -124 445 -141
8 -3 -56 -42 -151 -92 -593 -313 -1121 -719 -1564 -1202 -507 -553 -886 -1145
-1078 -1685 -34 -94 -90 -296 -85 -300 2 -1 286 107 633 241 l630 244 63 63
c77 75 233 249 487 542 530 612 892 972 1327 1317 353 281 853 607 1089 709
50 21 125 62 168 89 43 27 152 86 242 129 165 80 512 231 530 231 11 0 212
-83 348 -144 222 -100 321 -151 410 -208 51 -33 132 -76 180 -95 213 -86 744
-432 1101 -717 439 -351 780 -690 1310 -1300 220 -254 513 -580 541 -602 12
-10 136 -59 764 -302 94 -36 248 -96 343 -133 l173 -67 -6 41 c-23 135 -119
395 -230 622 -296 604 -763 1211 -1320 1715 -335 304 -774 608 -1178 816 -95
49 -156 85 -147 88 62 23 422 135 450 141 92 19 180 90 180 144 0 63 -62 101
-195 121 -99 16 -345 100 -702 241 -348 137 -438 168 -578 199 -197 42 -455
43 -671 1 -54 -10 -100 -18 -102 -16 -1 1 15 13 35 27 145 96 225 190 440 517
167 254 221 329 294 407 60 64 70 97 40 127 -37 37 -86 28 -371 -67 -697 -233
-882 -353 -964 -626 -9 -30 -37 -145 -61 -255 -52 -239 -78 -345 -85 -345 -7
0 -20 53 -80 325 -60 270 -79 333 -125 410 -103 176 -302 286 -849 471 -383
130 -378 129 -422 91z"/>
</g>
</svg>
